<svg xmlns="http://www.w3.org/2000/svg" viewBox="0 0 1200 1000"><defs><style>.cls-1{fill:#fff;}</style></defs><title>overlapping1200</title><g id="Laag_2" data-name="Laag 2"><g id="Laag_1-2" data-name="Laag 1"><path class="cls-1" d="M1189.11,928.66c-5.79-1.36-11.54-2.89-17.26-4.51a340.51,340.51,0,0,1-65.64,2c-26.81-1.9-54.16-5.84-79.67-14.6A301.89,301.89,0,0,1,983.27,893c-13.95-7.39-26.28-16.83-38.68-26.58-29.29-23.05-52.4-54.24-54.22-92.65-.79-16.6,4.49-35.84,13.56-49.78,10.58-16.26,22.57-27.07,38.6-37.92,12.48-8.46,27-14,40.79-19.65a301.92,301.92,0,0,1,34.07-11.27c25.77-7,52.15-11.82,78.57-15.68q51.84-7.56,104-11.67V597a619.38,619.38,0,0,1-57.15-28.17,533.45,533.45,0,0,1-51.65-32.94c-17.56-12.67-34.12-26.55-51.1-39.93-16.67-12.64-33.67-25-49-39.28-8.39-7.83-15.52-16.42-22.53-25.49s-13.54-18.13-18.26-28.68c-5.33-11.9-10.9-24.14-13-37.13-2-12.59-3.87-25.41-4.08-38.19-.23-13.53,1.63-26.8,3.59-40.17a131.61,131.61,0,0,1,5.34-23.2c9.08-26.95,23.26-51.09,46-68.64,17.76-13.72,38.66-22.63,60.53-27.71,35.4-8.24,71.42-8,107.3-11.66,11.91-1.23,23.9-2.26,35.89-2.31q4-.84,8.08-1.57V0H0V309.18Q7.76,320,15.85,330.62C48.9,372.91,84,413.86,112.77,459.28A394.62,394.62,0,0,1,150.46,535c9.79,26.81,14,55,17.14,83.3,4.61,41.77,3,84,3.55,126a405,405,0,0,1-4.24,63.94c-2.77,19.33-9.13,39.3-19.81,55.72-10.26,15.77-20.25,25.22-35,36.27C102,907.7,89.85,912.38,78,916.24c-22.91,7.42-47,10.37-69.77,18.18-2.71,1.12-5.43,2.18-8.19,3.15V1000H1200V931.06Q1194.52,929.94,1189.11,928.66ZM545.18,319.39c-13.06,21.56-33,35.25-56.59,43.12-10.51,3.52-22.14,4.38-33,5.32q-11.15,1-22.32,1.65c-15.87,1-31.77,1.53-47.67,1.33-79.11-1-188.39-20.78-208.86-111.43a91.46,91.46,0,0,1-5.2-21.47,94.35,94.35,0,0,1,1.9-35.74,79,79,0,0,1,4.29-12.84c.51-2.53,1.12-5.06,1.84-7.61a93.49,93.49,0,0,1,16.92-33.19c10-12.94,22.59-23.84,37.67-30.49,14.72-6.49,28.65-11.68,44.55-14,30.14-4.39,59.48-5.6,89.81-2.57,25.06,2.5,51.34,5.43,75.53,13.08,13.28,4.19,26.18,10,37.32,18.36,8.32,6.26,16.68,12.47,24,19.89,7.48,7.59,13.78,16.18,20.25,24.63a162.47,162.47,0,0,1,32.89,87.2A97.33,97.33,0,0,1,545.18,319.39Z"/></g></g></svg>