<?xml version="1.0" encoding="utf-8"?>
<!-- Generator: Adobe Illustrator 23.0.2, SVG Export Plug-In . SVG Version: 6.00 Build 0)  -->
<svg version="1.1" id="Laag_1" xmlns="http://www.w3.org/2000/svg" xmlns:xlink="http://www.w3.org/1999/xlink" x="0px" y="0px"
	 viewBox="0 0 1920 1080" style="enable-background:new 0 0 1920 1080;" xml:space="preserve">
<style type="text/css">
	.st0{fill:#FFFFFF;}
</style>
<path class="st0" d="M1637,700.9c20.8-13.4,42.7-23.1,65.5-32.7c20.2-8.5,39.9-16.7,61.2-22c7.4-1.8,14.9-3.4,22.4-4.7
	c20.8-3.6,41.9-6.3,62.9-8.5c16.9-1.8,33.8-2.3,50.7-1.8c7-3.8,13.8-7.4,20.2-10.8v-49.6c-21.5-2.3-42.9-5.3-64.1-8.7
	c-12.2-2-24.2-4.5-36.1-7.7c-24.4-6.7-47.5-17.3-70.7-27.3c-10.4-4.5-20.5-9.8-30-16.1c-15.7-10.5-30.5-22.4-44.9-34.4
	c-4.3-3.6-8.4-7.4-12.2-11.4c-13.1-13.8-24.3-29.7-35.5-44.9c-3.4-4.6-6.6-9.5-9.4-14.5c-9.5-16.9-16.2-35.6-23.5-53.4
	c-2.4-5.9-4.5-11.9-6.2-18c-1.8-6.5-3.3-13.2-4.4-19.9c-3.4-20.8-6.6-41.9-8-63c0.1-28.9,7.4-55.8,21.8-80.8
	c10.1-18.6,23.8-33.6,41.2-44.9c15.5-14.1,33.6-23.7,54.4-28.6c4.5-1.2,9-2.2,13.5-3c34-20.2,64.3-1.9,107.3,1.1
	c7.3-0.5,14.6-0.5,22,0.1c13.1-0.9,27.5-3.6,43.3-9.3c17.5-6.3,30.4-13.8,41.6-22.9V0H0v205.4c11,1.4,21.9,3,32.9,4.6
	c19.9,3,39.6,7,59.1,12.3c29.2,8,56.8,19.5,84.5,31.7c18.2,8,35.9,17.4,52.5,28.4c24.8,16.5,49,35,70.1,56.1
	c13.8,13.8,25.6,30,37,45.6c6.1,8.3,11.6,17.1,16.5,26.1c9.7,17.7,17.1,36.7,24.8,55.3c4.1,9.9,7.6,20,10.7,30.3
	c5.9,19.6,10.1,39.7,12.8,60c3.9,28.3,7.8,55.8,5.1,84.3c-2.2,23.6-4.6,49.4-13.4,71.9C387,727,381,743,372.8,756.9
	c-8,13.6-18.4,26-28.4,37.9c-3.9,4.7-8.3,9.1-12.9,13.1c-12.1,10.5-24.9,20.5-38.4,29.2c-19.7,12.6-42.5,21.4-64.2,29.4
	c-14.9,5.5-30.2,9.6-45.6,13.1c-16.9,3.8-33.9,7-50.9,9.7c-24,3.7-49.1,8.1-73.6,7.9c-16-0.1-32.5-3-48.1-5.3
	c-3.6-0.5-7.2-1.2-10.7-2.1V1080h1920v-6.1c-28.3-2.9-56.6-6.5-84.6-11.5c-19.1-3.4-38-8.2-56.3-15c-31.1-11.6-61.3-24.9-89.9-41.6
	c-17.1-10-34.1-20.3-52.2-28.5c-24-14.2-43.2-33.4-57.4-57.4c-14.5-25-21.8-51.9-21.8-80.8c0.1-28.9,7.4-55.8,21.8-80.8
	C1593.8,734.3,1613,715.1,1637,700.9z M1027.2,463.4c-3.6,15.2-10.6,28.4-20.9,39.7c-8.2,12.7-19.1,22.7-32.7,30
	c-13.4,8.5-27.8,13.1-43.4,13.8c-15.5,3.5-31,2.8-46.5-2.1c-23.1-4.7-45.6-11.6-67.5-20.1c-48.8-18.9-95.3-41.9-141.4-66.7
	c-32.7-17.6-65.4-35.5-99.2-50.8c-23.6-9.2-47.9-16.7-72.8-21.4c-9.6-0.8-19.3-1.1-29-0.9c-16.1,0.6-31-2.7-44.9-10
	c-14.5-4.7-27-12.7-37.5-24.1c-6.1-7.9-12.2-15.7-18.2-23.6c-3.9-9.3-7.8-18.6-11.8-27.9c-4.9-15.5-5.6-31-2.1-46.5
	c0-10.5,2.7-20.3,8-29.4c4.7-14.5,12.7-27,24.1-37.5c7.9-6.1,15.7-12.2,23.6-18.2c21.6-14.3,46.6-24.2,70.7-32.9
	c16.6-6,33.9-10.3,51.3-13.3c43.6-7.5,87.5-11.8,131.7-7.9c44.4,4,89.5,10.7,131.2,27.3c24.1,9.6,48.7,19.5,70.8,33.4
	c14.9,9.4,28.8,20.7,42.6,31.7c6.2,4.9,12.1,10.2,17.7,15.9c12,12.3,22.3,26.6,32.6,40.3c4.6,6.1,8.7,12.6,12.4,19.3
	c8.4,15.5,15.1,32.1,21,48.6c2.8,7.7,4.9,15.6,6.4,23.6c0.7,2.2,1.3,4.4,1.8,6.6c3.5,4.5,6.9,8.9,10.4,13.4
	c10.6,18.2,15.9,37.8,15.9,58.9C1029.9,442.7,1028.5,453,1027.2,463.4z"/>
</svg>
