<?xml version="1.0" encoding="utf-8"?>
<!-- Generator: Adobe Illustrator 23.0.2, SVG Export Plug-In . SVG Version: 6.00 Build 0)  -->
<svg version="1.1" id="Laag_1" xmlns="http://www.w3.org/2000/svg" xmlns:xlink="http://www.w3.org/1999/xlink" x="0px" y="0px"
	 viewBox="0 0 1920 1080" style="enable-background:new 0 0 1920 1080;" xml:space="preserve">
<style type="text/css">
	.st0{fill:#FFFFFF;}
</style>
<path class="st0" d="M1835.6,666.1c32.4-17.8,60.2-32.9,84.4-45.7v-85.6c-3.3,0.3-6.3,0.4-8.8,0.2c-71.3-3-157.3-38.5-210.3-110.4
	c-81.1-109.9-69.4-283.8,3.2-329.6c49.7-31.3,90.8,20.7,174.3-9.2c17.5-6.3,30.4-13.8,41.6-22.9V0H0v224.8c0.8,0.1,1.5,0.3,2.3,0.4
	c12.7,2.3,21.7,6.1,132.8,92.7C218,382.4,259.7,415.1,272.3,433c41,58.4,65.3,148.2,40.5,234C275,798.3,130,895,49.5,865.3
	C21.9,855.1,12.2,833.9,0,809.2V1080h1920v-38.6c-40.7-26.6-80.4-20.5-167.9-58.7c-68.3-29.9-174.5-76.4-177-135
	C1573.9,819.2,1597.6,797,1835.6,666.1z M967.4,401.8c-15.7,60-114.3,93.1-176.9,71.1c-42.8-15-36.8-44.6-96.8-74.9
	c-46-23.2-68.8-15.5-151.9-38c-55.6-15-141.9-38.4-157-67.3c-7.4-14.1,4.5-24.9,144.3-88.4c99-45,126.9-54.9,166.1-45.5
	c9.7,2.3,16.7,5,107.4,57.4c67.6,39,101.6,58.8,112.7,68.6C951.2,316.9,977.6,362.6,967.4,401.8z"/>
</svg>
