<?xml version="1.0" encoding="utf-8"?>
<!-- Generator: Adobe Illustrator 23.0.2, SVG Export Plug-In . SVG Version: 6.00 Build 0)  -->
<svg version="1.1" id="Laag_1" xmlns="http://www.w3.org/2000/svg" xmlns:xlink="http://www.w3.org/1999/xlink" x="0px" y="0px"
	 viewBox="0 0 1280 1180" style="enable-background:new 0 0 1280 1180;" xml:space="preserve">
<g transform="translate(0.000000,1180.000000) scale(0.100000,-0.100000)">
	<path d="M1330,11117c0-14,20-37,32-37s10,24-4,38C1342,11134,1330,11133,1330,11117z"/>
	<path d="M659,11100c-51,0-99-18-99-38c0-8-8-16-19-19c-13-3-20-17-23-48c-5-42-14-64-57-139c-16-27-19-42-12-49c17-17,13-85-5-117
		c-11-18-14-34-9-46c5-11,9-21,10-24c11-45,82-150,102-150c6,0,9-9,6-20s0-20,6-20s11-7,11-16c0-19,50-74,67-74c7,0,13-9,13-21
		s18-44,40-72c22-27,43-61,46-74c4-12,12-23,20-23s14-9,14-21c0-16,4-19,20-14s23,0,35-28c18-44,64-99,76-91c5,3,17-2,26-12
		c16-16,16-16-5-10c-18,6-21,4-15-11c13-35,46-71,59-66c8,3,18-5,24-21c5-14,14-26,20-26c5,0,10-7,10-16s9-18,19-21
		c11-3,18-10,15-17s4-20,15-30s17-24,14-32s1-14,11-14c21,0,86-32,86-42c0-4-7-8-15-8s-15-3-15-7c0-12,33-43,47-43c7,0,13-5,13-11
		c0-7,16-34,35-60c19-27,35-52,35-56c0-11,43-53,54-53c6,0,16-11,23-25c9-20,8-25-2-25c-7,0-18-7-25-15c-10-12-10-18,0-30
		c7-8,9-15,4-15c-4,0-3-5,4-12c17-17,15-25-8-31c-30-8-35-35-15-70c13-22,15-32,6-35s-9-7,0-18c15-19,4-30-14-15c-18,14-33-2-39-39
		c-4-25-4-24-43,16c-37,39-105,83-105,68c0-4-6-2-13,3c-37,29-102,18-76-13c9-11,7-14-12-16c-13,0-32,0-42,0c-11,1-21-6-24-18
		c-7-27-43-27-43,0c0,11-7,20-15,20s-15,9-15,20c0,10-14,35-30,53c-17,19-30,39-30,43c0,5-24,20-52,33c-59,28-177,36-199,14
		c-7-7-21-13-30-13c-12,0-19-12-23-45c-4-25-12-45-18-45s-8-9-5-20c3-12,0-20-8-20c-19,0-40-30-37-52c2-11-12-38-32-63
		c-26-32-36-53-36-79c0-33-2-36-30-36c-20,0-30-5-30-15c0-25,25-67,59-99c17-17,31-34,31-39s11-22,25-39c14-16,25-36,25-43
		c0-8,13-22,30-32c16-9,30-20,30-24s16-16,35-28c19-11,39-31,44-43c5-13,28-41,50-63c39-37,52-65,31-65c-6,0-6-9-1-23
		c8-20,6-23-14-22c-13,0-27,3-31,7c-11,12-26-2-16-15c5-7,12-19,15-28c4-13,1-16-15-11c-19,5-19,3-7-19c8-13,19-46,26-74l12-50
		l-37-33l-37-32l23-19c13-12,20-25,16-35c-4-12,0-16,15-16c12,0,31-10,42-21c20-20,20-23,5-31c-21-12-11-28,18-28c14,0,42-19,70-46
		c45-45,46-47,29-66c-16-18-16-19,6-25c18-4,22-11,18-30c-2-13-2-22,0-19c3,3,16,1,30-5c16-6,22-6,18,1c-11,17,7,11,21-7
		c7-10,14-28,14-39c0-24,24-49,38-40c5,3,19-5,31-18c19-20,20-24,6-36c-8-7-15-21-15-30c0-29-11-50-26-50c-8,0-14-7-14-16
		c0-16-44-64-58-64c-3,0-24,19-47,43c-41,43-136,131-168,155c-27,20-20-2,10-35c16-16,61-64,100-107c44-46,73-86,73-99
		c0-19-4-17-39,17c-50,49-76,44-32-6c17-20,31-46,31-58c0-29,120-150,149-150c12,0,21-6,21-15c0-8,6-15,14-15c7,0,19-7,26-15
		s16-13,20-10s13-2,20-10s18-15,25-15c8,0,26-10,42-22c34-28,61-45,89-57c11-5,33-20,50-34c16-14,41-27,54-29c19-2,25-9,25-29
		c0-28,43-71,89-88c14-6,26-17,26-25c0-18,19-25,51-19c33,6,132-81,124-109c-4-11-1-20,9-24c9-3,16-14,16-24s7-23,15-30s15-19,15-27
		c0-7,18-31,40-53c27-27,40-48,40-66c0-33,36-75,57-67c12,5,14,0,8-25c-5-25-2-33,14-42c14-7,21-21,21-40c0-20,5-30,15-30
		c15,0,20-16,17-52c-1-10,3-18,9-18c5,0,7,5,4,10c-11,18,1,10,26-16l24-27l-33,6c-25,5-35,2-44-12c-9-15-16-17-47-8
		c-20,5-60,12-89,14c-28,3-52,8-52,12s-37,8-81,9c-68,2-84-1-95-15c-8-11-13-13-14-5c0,20-45,14-66-9c-10-11-19-35-21-52
		c-1-18-4-52-7-77c-2-25-5-51-5-58c-1-7-6-10-13-6c-6,4-17-2-25-12c-14-19-15-19-28,0c-9,12-21,17-35,13c-16-4-20,0-20,20
		c0,21-2,23-15,13c-8-7-13-16-10-20c3-5,1-11-4-15c-5-3-14,2-19,11c-9,16-11,15-23-4c-8-12-17-22-21-22c-12,0-10,54,4,105
		c12,45,28,60,28,28c0-15,4-13,20,7c11,14,20,31,20,38c0,14-16,16-25,2c-3-6-16-8-28-5c-14,3-32-4-50-20c-23-20-27-32-27-75
		c0-47-12-66-24-37c-3,8-12,3-28-15l-23-27l-18,31c-12,22-15,34-7,42c13,13,13,93-1,101c-6,4-21-3-34-15c-25-24-47-19-43,8
		c2,14-6,17-39,18c-25,0-50,8-61,17c-22,20-53,22-70,5c-9-9-17-9-36,2c-36,19-56,7-56-33c0-18-6-39-13-46c-10-11-9-13,5-8
		c13,5,18,1,18-13c0-13,7-20,20-20c25,0,27-30,2-30c-16-1-16-1,0-14c10-7,18-18,18-25c0-22-46-10-74,20c-16,16-35,28-42,25
		s-16-1-19,4c-9,14-51,12-63-2c-5-7-13-28-17-46l-7-33l43,7c31,5,40,4,35-4c-4-7-16-12-28-12c-11,0-48-13-83-30c-55-26-62-33-58-54
		c4-19,0-25-17-28c-19-3-20-5-7-22c11-15,28-20,63-21c27-1,60-8,74-16c25-14,25-14-18-17c-37-3-42-6-37-22c4-13-2-21-25-31
		c-38-17-38-31,0-62c30-26,39-52,19-59c-6-2-1-15,11-31c21-26,21-29,6-46c-15-16-15-20-2-30c12-10,13-17,4-31c-13-21-5-48,18-57
		c11-4,23,2,36,20c11,15,24,24,30,21c6-4,14,0,19,7c6,11,9,10,15-4c7-19-11-47-32-47c-18,0-27-17-17-32c4-7,8-22,8-33s7-20,15-20
		c9,0,14,7,12,18c-4,23,11,22,32-2c19-21,19-20,83,13c41,21,70,22,53,1c-7-8-22-15-34-15s-27-9-34-20c-8-13-23-20-42-20
		c-17,0-33-6-36-14s-12-12-19-10c-21,9-26-12-10-42c8-16,15-39,15-50c0-12,7-27,15-34s15-24,15-39c0-14,4-33,9-40c8-12,11-8,16,15
		c4,16,8,34,10,41s0,15-5,18c-19,12-10,44,12,47c15,2,24,11,26,26c4,24,37,31,46,10c3-9,9-8,20,6c15,18,16,18,35-5
		c11-13,20-34,21-47c0-18,3-20,17-13c10,6,30,12,46,16c26,5,27,7,23,56c-5,50-5,51,15,33c16-14,19-26,13-60c-3-23-2-44,4-48
		c9-6,22,46,22,94c0,14,7,38,15,54c8,15,15,46,15,67c0,35,3,39,25,39c16,0,23-4,19-14c-3-7,2-16,11-20c9-3,18,0,21,9
		c9,24,22,18,26-12c2-17,13-32,33-43c17-10,29-24,27-33c-1-8,2-18,6-21c8-5,8-30,1-73c-3-22,15-54,30-51c19,4,28,65,12,81
		c-14,14-14,64,0,72c6,4,8,13,5,21s-1,14,4,14c6,0,10-6,11-12c1-7,2-20,3-28c2-8,3-27,4-42c2-22,7-28,25-28c30,0,47-18,47-48
		c0-38,18-64,41-57c13,4,19,2,19-9c0-9,8-16,17-17c14,0,13-2-5-9c-46-19-15-78,35-65c23,5,25,4,13-10c-10-12-10-21-2-38
		c6-12,14-40,17-62c4-21,15-45,25-52c21-15,35-62,22-75s-42,2-42,22c0,27-19,35-38,16c-14-13-14-20-4-36c7-12,8-20,2-20
		c-5,0-10,5-10,10c0,12-57,13-64,1c-3-5,1-11,9-15c20-7,19-26-2-26c-16,0-16-1,0-17c10-10,34-17,59-18c34-1,44-5,47-21
		c2-10,12-31,23-47c11-15,16-27,11-28c-4,0-32-2-61-4s-64-11-78-20c-23-15-24-15-24,10c0,29-14,33-30,8c-9-17-11-17-22,2
		c-6,11-12,33-12,50c-1,22-5,29-17,27c-9-1-19,4-23,13c-7,19-56,20-56,1c0-8,4-18,10-21c6-4,5-13-2-25c-9-15-9-24,2-45s12-30,2-46
		c-8-12-9-25-3-36c5-10,14-40,20-68c12-52,32-75,63-75c25,0,22-15-7-34c-30-20-32-36-6-36c28,0,34-15,21-53c-9-26-9-39,4-69
		c9-21,23-38,31-38c20,0,19,7-5,37c-11,14-20,35-20,47c1,20,1,20,12,2c11-19,11-19,24-1s14,17,14-6c0-20,5-25,22-25c21,1,23-4,23-43
		c0-41,3-45,33-58c27-11,33-11,30-1c-3,7-15,18-27,24c-14,7-19,14-12,18c14,9,40-9,75-50c30-37,32-44,11-44s-19-20,7-47
		c17-19,19-26,9-36c-10-9-15-8-25,6c-12,15-56,25-56,12s42-45,60-45c11,0,20-6,20-13c0-23,22-38,37-26c10,9,13,7,13-7s3-15,12-6
		c17,17,26,15,34-10c4-13,24-43,44-68c21-25,49-65,63-90c20-35,31-45,51-45c29-1,65-40,43-48c-9-3-9-8,2-21c8-9,21-14,31-11
		c9,3,28-3,41-14c20-17,21-20,6-21c-9,0-17-7-17-15c0-15,39-17,50-3c12,15,40-22,42-56c3-38,5-39,53-40c27-1,30-5,35-41
		c4-32,9-41,27-43c15-2,25-13,29-29c8-30,50-77,62-69c5,3,12-13,16-35c5-34,9-39,20-29c11,9,17,7,26-7c8-13,13-14,16-5
		c11,24,24,11,24-23c0-24-5-35-15-35c-8,0-15,9-15,20s-4,20-9,20c-11,0-8-106,2-117c4-3,13-1,19,5c9,9,9,15,0,24c-16,16-15,28,3,28
		c8,0,15-7,15-16c0-16,12-16,67,2c11,4,14,3,7-3c-7-4-13-17-16-28c-2-13-10-19-21-17s-17-2-15-10c3-14-32-78-43-78c-4,0-9,9-12,20
		c-7,26-27,33-60,21c-32-12-36-45-10-73c16-18,16-18,0-12c-26,9-21-22,5-40c12-9,18-16,12-16s-16-11-24-24c-7-13-21-27-31-29
		c-27-7-34-35-15-56c9-10,16-24,16-33c0-8,11-31,24-51c14-20,30-64,36-99c7-35,15-72,20-83s14-38,20-60s16-49,22-61c5-12,8-31,6-44
		c-4-27-28-40-28-15c0,18-39,89-46,83c-4-5,14-89,25-113c14-30,20-78,12-98c-6-16-9-14-29,13c-23,31-42,39-42,18c0-16,48-116,60-123
		c6-3,10-16,10-29c0-23,70-106,89-106c6,0,11-7,11-15c0-9,8-19,17-22c9-4,27-18,40-32c17-20,19-28,9-36c-26-21-26-44,1-65
		c24-19,28-19,42-5s14,17,1,26s-13,10,1,6c24-8,83,49,74,71c-4,9-9,23-12,29c-3,7,0,13,6,13s11,13,11,29s5,31,12,33c9,3,7,14-5,40
		c-21,45-21,48,0,48c11,0,25,16,35,39c25,53,27,42-33,163c-24,47-24,56,3,78c22,18,23,19,6,52c-18,37-28,95-31,178c-2,45-5,55-19,52
		c-9-1-19,2-23,8s1,7,11,3c12-4,15-2,12,8c-2,8-15,15-27,17c-17,3-20,7-11,17c8,9,7,14-5,19c-8,3-15,10-15,15c0,6,7,8,15,5
		c22-9,18,20-6,42l-21,19l22,17c12,10,31,18,41,18c25,0,24,15-1,40c-11,11-20,27-20,36c0,16-37,53-54,54c-4,0-6-7-2-15
		c3-9,0-15-8-15c-19,0-27,37-10,44c11,4,11,12-1,47c-8,23-15,44-15,47c0,13,38-46,47-73c9-28,13-30,54-27c40,3,45,0,56-25
		c17-36,16-63-2-63c-22,0-19-46,5-70c11-11,23-32,26-46c4-15,15-35,25-45c11-11,19-28,19-39c0-26,25-36,45-20c19,16,65-2,65-25
		c0-8,5-15,12-15c6,0,9-3,5-6c-3-4,1-13,9-22c9-8,13-24,11-34c-3-12,2-23,14-31c10-6,19-20,19-29c0-10,7-18,15-18s15-6,15-13
		c0-8,11-24,25-37s25-30,25-38c0-18,57-75,69-67c5,3,12,1,16-4c3-6,13-7,22-4c13,5,15,2,10-17c-3-13-2-31,3-40c5-10,12-32,15-51
		c8-43,28-85,41-82c6,1,11-14,11-33c1-19-3-34-8-34s-9,5-9,10c0,6-10,10-21,10c-19,0-21-4-15-32c3-17,13-39,21-48s15-22,15-29
		c0-6,8-24,17-38c10-15,25-47,33-72c9-24,22-47,29-49c9-3,11,0,6,9c-6,11-5,11,5,2c16-15,5-63-15-63s-19-20,1-34c8-7,17-27,19-46
		s7-44,10-56c5-15,0-24-17-32c-15-9-16-10-3-6c11,4,27,7,36,8c17,0,15,25-3,36c-9,7,9,80,20,80c12,0,41-72,48-117l6-42l18,22l18,22
		l-5-29c-4-19-2-27,5-22c6,4,8-1,5-13c-3-13,2-20,18-24c15-4,19-3,11,5c-7,7-7,16,0,28c7,10,8,25,3,36c-4,11-7,25-6,32
		c1,8-3,19-9,27c-7,8-7,15-1,19c5,3,28-15,51-41c33-38,43-44,50-33c14,22,12,54-5,76c-14,18-14,18-15-8c0-16-5-28-11-28s-9,6-6,14
		c3,7-1,26-9,41s-14,38-14,51s-5,24-11,24c-7,0-9,28-7,80c2,44,6,80,10,80c17,0,7,23-22,52c-16,16-30,34-30,39s-4,9-9,9s-7-9-4-20
		s0-20-5-20c-14,0-35,37-28,49c3,5-1,11-9,15c-8,3-15,17-15,32c0,22,4,25,20,21c17-4,20-2,15,13c-4,13,1,19,19,24c17,4,26,14,28,33
		c2,14,9,28,15,31c21,6,15-46-7-68c-25-25-25-34,0-51c13-9,23-31,28-59c8-44,8-44,21-21c11,20,11,26,0,35c-10,8-13,31-11,86
		c3,68,1,78-19,95c-16,14-23,16-26,7c-9-24-22-1-16,28c6,32-4,38-26,17c-11-10-12-6-6,20c3,18,2,40-4,50c-8,15-10,10-11-25
		c0-23-7-54-16-67c-13-20-14-28-5-39c8-10,9-16,1-21c-5-3-10-21-11-38c0-18-3-26-6-19c-5,13-33,17-33,4c0-4,5-13,11-19
		c8-8,6-14-9-22s-23-8-28,1c-4,6-3,8,3,5c12-8,26,74,17,98c-4,11-2,13,9,9c16-6,20,3,32,63c4,18,2,34-4,38c-6,3-11,17-11,30
		s-4,26-9,29c-18,12-22,69-5,87c15,17,15,19,0,25c-29,11-16,94,15,94c4,0,5-9,2-20s0-20,6-20s11,14,11,30c0,17,4,30,10,30
		c5,0,10-8,10-18c0-11,11-32,25-48s28-39,31-51c3-11,14-23,23-26c17-4,41-47,71-124c7-18,18-37,25-43c8-6,11-19,8-27c-4-11-2-14,6-9
		c7,5,22-5,38-23c32-37,55-39,76-9l15,23l41-45c33-35,39-47,29-55c-8-5-12-19-10-30c4-19,2-18-21,4c-18,16-32,21-44,17
		c-16-7-15-10,9-28c25-18,41-47,19-33c-5,3-12,1-15-4s-15-7-26-4c-16,4-20,0-20-21c0-30,3-31,34-11c21,14,24,14,29,0
		c10-25,28-17,21,10c-3,14-2,25,4,25c9,0,24-25,26-43c1-5,8-14,17-20c21-16,21-49,0-45c-9,2-16,10-16,17c0,20-17,23-39,6
		c-16-12-17-18-8-27c7-7,12-20,12-30s9-23,19-30c10-6,17-18,14-25s2-13,11-13s16,4,16,9c0,13,37,2,51-15c8-10,7-17-5-29
		c-20-21-20-43,0-84c13-26,19-30,30-20c8,6,14,18,14,25c0,17,16,18,26,3c4-8,9-8,17,0c16,16,30,13,23-5c-4-11-1-14,13-9
		c13,4,20,0,24-15c3-13,10-18,21-14c9,3,16,1,16-6c0-6-4-9-9-6s-14-1-21-8c-9-12-7-17,9-25c11-6,28-11,39-11c14,0,21-9,26-31
		c6-31,52-89,71-89c5,0,25-21,44-45c18-25,40-45,47-45c8,0,14-10,14-23c0-30,18-47,51-47c24,0,26,3,25,38c0,23,8,52,24,77
		c24,38,24,39,30,15c6-28,50-42,50-17c0,8,7,20,16,28c10,8,13,21,9,36c-7,31,9,29,23-3c12-25,32-25,32,2c0,8,8,14,18,14
		c15,0,18,10,20,57c1,32,6,60,10,64s29,9,56,12c42,4,51,2,69-19c17-20,27-23,54-18c21,4,33,2,33-5c0-20,36-12,66,14
		c47,42,52,45,68,45c8,0,18,5,21,10c3,6,21,10,38,10c21,0,36,7,44,19c7,11,26,22,43,26c28,6,30,10,30,49c0,23-6,48-13,55
		c-10,11-9,13,5,8c22-8,25,18,3,27c-8,3-14,9-14,13c1,4-2,17-6,27c-6,14-2,24,14,38c13,10,29,18,36,18c19,0,25,48,8,62
		c-21,17-11,51,20,66c19,9,26,17,19,24c-6,6-17,6-31-2c-25-13-37-8-44,20c-3,13,0,20,9,20c26,0,14,19-14,22c-21,2-28,9-30,31
		c-4,32-29,47-43,26c-7-11-9-9-9,8c0,13,8,24,21,28c12,4,30,16,40,26s22,19,27,19c4,0,28-19,52-43c25-24,54-47,65-52c18-7,18-9,3-12
		c-31-8-32-42-2-74c31-32,42-32,24,0c-7,14-7,21,0,21c5,0,10-5,10-11s9-9,20-6c17,4,22,0,27-24c3-16,13-35,22-42c10-7,20-20,24-29
		c4-10,12-15,21-12c15,6,16-26,1-93c-5-22-4-33,4-33c6,0,11-7,11-15c0-10,10-15,34-15c26,0,41-8,68-38c19-21,79-74,133-117
		c78-62,101-76,114-68c9,6,15,21,13,36c-3,31,11,42,28,22c18-21,40-19,40,4c0,11,5,23,11,27c8,5,6,10-5,16c-24,14-19,29,8,22
		c13-3,27-1,30,5c10,15,79,14,94-1c7-7,12-8,12-2s-6,16-13,23c-10,10-8,15,7,27c27,20,32,18,57-18c13-18,27-36,32-39c5-4,7-11,3-17
		c-3-5,12-32,34-58c22-27,40-54,40-60s7-17,15-24c9-7,25-32,35-55c11-23,37-65,60-93c22-28,40-57,40-65c0-7,24-42,53-77
		c30-36,57-77,61-92c9-40,26-35,26,7c0,22-6,38-15,41c-8,4-15,14-15,24c0,29-11,50-26,50c-8,0-14,4-14,9c0,13,34,24,38,12
		c2-6,10-11,19-11c10,0,12-6,8-22c-6-17-4-20,9-15c12,5,16,0,16-18c0-14,5-25,11-25s8-7,5-17c-6-14-2-12,17,5c13,12,30,22,38,22
		s20,5,27,12c10,10,11,6,6-20c-6-28-3-33,20-42c30-11,33-27,8-46c-14-11-15-15-3-26c11-10,14-10,18,0c7,19,23,14,23-7
		c0-10-6-21-14-24c-7-3-16-19-19-36c-4-17-13-31-20-31c-10,0-13-8-9-25c6-32,22-32,22,0c0,22,3,25,25,19c18-4,25-2,25,8
		c0,19,23,68,33,68c4,0,10-7,13-15c4-8,15-15,25-15c32,0,24-39-11-51c-35-13-36-15-14-36c10-10,18-12,22-6s22,10,41,9
		c33-1,34-3,38-46c3-25,9-50,14-56c12-15-13-36-35-28s-20-2,4-26c26-26,25-40,0-40c-20,0-38-25-27-36c10-10,77,17,77,31
		c0,8,5,17,10,20c6,4,9,1,8-6c-2-6,3-14,9-16c7-3,13,0,13,6s4,11,10,11c16,0,12-42-7-62c-9-10-29-18-45-18h-28l37-49
		c43-57,53-61,53-26c0,14,4,25,10,25c5,0,10-7,10-15s5-15,10-15c7,0,7-6,0-19c-14-27-13-41,4-41c10,0,14-9,13-27c-2-21,2-28,15-27
		c11,1,18-5,18-16c0-19,66-80,86-80c7,0,14,5,16,11c6,19,58-8,58-31c0-11-5-20-10-20c-6,0-10,7-10,15c0,16-35,21-44,7
		c-8-13,72-92,92-92c10,0,29-11,42-25s28-25,34-25s16-8,23-19c6-10,27-21,46-25s46-15,60-26s33-20,42-20c17,0,44,26,45,43
		c0,12-28,8-33-5c-3-7-6-1-6,15c-1,31-15,35-30,10c-9-16-10-15-11,8c0,14-9,34-20,44c-33,30-7,41,32,13c18-13,46-30,63-37
		c26-11,22-5-23,38c-29,28-51,51-48,51s26-11,52-25c62-33,74-32,74,5c0,22-4,28-15,24c-8-4-15-2-15,3c0,20,14,22,32,6
		c28-25,35-6,8,22c-13,14-21,28-17,31c4,4,9-1,13-10c4-10,13-14,24-11c9,3,29-4,43-16l27-20v20c0,12-5,21-11,21s-9,10-8,23
		c2,12,0,28-5,35c-11,18-4,23,43,28c36,3,41,1,41-16c0-11,4-20,9-20c18,0,18,41-1,77c-29,56-48,124-42,149c3,13-2,33-11,48
		c-16,24-16,26-1,26c9,0,16-6,16-14c0-7,11-30,25-50s25-43,25-50c0-6,11-27,24-45c17-22,26-29,32-20c9,15,10,77,1,86c-4,3-7,13-7,20
		c0,8-9,32-19,53c-11,22-16,40-13,40c4,0,26-22,48-48c41-48,43-48,104-50c71-2,86,3,69,24c-9,11-8,14,4,14c10,0,18,14,22,40
		c6,37,9,39,33,33c21-5,24-3,19,11c-5,13-2,17,11,14c10-2,16-11,14-23c-3-17-2-18,20-3c12,9,22,23,20,31c-1,9,7,21,18,27
		c12,6,19,18,16,25c-2,7,1,16,9,19c13,5,28,28,61,97c10,20,27,40,38,45c12,5,21,18,21,29s10,24,22,30c21,9,23,16,23,102
		c0,82-2,94-22,113c-12,11-35,20-53,20c-19,0-39,8-50,20c-10,11-23,20-30,20c-10,0-98,76-217,188c-19,19-46,39-58,45
		c-13,7-28,26-34,42c-6,17-35,55-64,85s-57,65-63,78c-5,12-17,25-26,29c-30,10-93,76-114,118c-29,59-72,133-86,146c-9,9-16,9-28-1
		c-13-10-15-9-16,6c-4,63-11,91-26,104c-10,9-23,25-29,35c-7,11-18,20-26,19c-10-1-13,7-10,26c3,24,0,28-28,34c-56,11-63,9-56-19
		c8-33-11-33-26,0c-10,23-8,29,25,63c20,21,37,43,37,50s12,36,27,65c26,49,28,59,25,161c-1,65-8,121-16,140c-27,60-27,68-6,83
		c17,12,20,21,14,46c-3,18-10,37-14,42c-4,6-13,28-20,50s-19,49-26,60c-6,11-15,36-19,55s-10,40-13,45c-14,22-9,35,24,64
		c30,28,64,41,64,25c0-12-34-33-53-34c-24,0-11-20,14-20c10,0,19-4,19-10c0-5-9-10-20-10s-20-7-20-15c0-9,9-15,23-15
		c13,0,28-5,35-12s36-11,71-10c43,1,65-3,82-17c13-10,39-23,57-29c19-6,57-31,85-54c28-24,59-47,69-53c10-5,44-31,77-58l59-47l30,25
		c32,27,42,31,42,15c0-5,16-25,35-44c19-20,35-38,35-42c0-3,21-30,46-59c25-30,43-59,39-65c-6-10,17-37,103-115c52-48,53-48,124-49
		c62-1,76,2,100,22c15,13,40,27,55,31c18,5,30,16,34,32c11,46,21,69,30,69c5,0,9,11,9,25c0,18,11,32,42,52c79,51,80,51,117,31
		c26-15,36-16,47-7c12,9,19,8,37-10c13-11,33-21,44-21s26-7,33-15s27-15,46-15c18,0,35-4,39-9c3-5,19-9,35-9c16,1,35-4,42-9
		c22-17,126-25,151-11l22,12l-25,7c-14,4-42,7-63,8c-22,1-51,7-65,15c-15,8-54,20-87,27s-76,21-95,31s-40,18-47,18s-29,7-50,16
		s-55,24-75,33c-45,19-52,45-10,35c15-4,39-15,54-25c14-11,34-19,43-19s36-9,61-20c24-11,58-23,74-27c17-3,33-10,36-14
		c3-5,24-9,47-9s60-5,82-9c69-16,158-17,162-3c3,7-5,12-22,12c-25,0-85,36-85,52c0,4,12,8,26,8c21,0,24,3,15,13c-17,21,0,29,20,11
		c13-11,28-15,49-11c29,6,41-5,20-18c-17-11-11-23,15-29c16-4,25-13,25-26s7-20,18-20c10,0,23-5,30-12c9-9,12-9,12,0c0,7-3,12-8,12
		c-11,0-31,49-21,55c4,3,17,0,28-7c15-9,17-15,9-25s-6-13,7-13s16-6,13-24c-4-19-1-22,14-18c10,2,20-2,24-12c3-9,21-23,39-31
		c17-9,38-27,45-40c9-16,22-25,37-25c20,0,23-4,18-20s-2-20,15-20c13,0,24-8,27-20c3-11,12-20,19-20c8,0,14-4,14-10c0-5,6-10,13-10
		c16,0,47-36,47-55c0-8,7-15,15-15s15-7,15-17c0-14-2-14-18-2c-9,8-30,21-45,29c-16,8-33,22-38,32c-12,23-39,23-39,1
		c0-18,57-83,73-83c6,0,16-8,23-17c12-17,15-17,61,1c69,26,78,25,81-6c3-28,26-38,35-15c3,7,6,5,6-5c1-10,8-18,16-18c9,0,18-6,21-14
		s12-12,20-9c17,6,31-26,15-36c-9-6-7-12,5-22c16-12,17-12,11,3c-11,29,7,21,61-30c44-41,52-54,52-85c0-20-5-39-10-42
		c-21-13-8-23,37-30c26-4,60-15,74-26c15-10,34-19,42-19c20,0,142-121,139-137c-2-7,3-13,11-13c7,0,40-20,73-44c32-25,80-61,106-80
		c57-43,115-49,136-16c7,11,23,20,37,20s25,5,25,11c0,7,9,9,23,5c17-4,25,0,32,17c6,12,19,22,30,22c17,0,20-6,18-40c-1-22,1-30,4-17
		c2,12,11,22,18,22c9,0,12-6,9-15c-6-15,42-64,64-65c7,0,27-14,45-30c26-25,38-30,62-25c19,3,25,2,16-4c-20-13-5-50,18-44
		c27,7,61-14,61-37c0-21,15-27,25-10c3,6,11,10,17,10s8-3,5-7c-9-8,24-32,45-33c10,0,18,7,18,15s4,15,10,15c13,0,13-17,0-25
		c-5-3-10-17-10-30c0-18,4-23,15-19c10,4,15,0,15-11c0-13,6-16,25-11c22,6,25,3,25-20s2-25,15-14s20,9,40-10c25-23,51-19,41,7
		c-5,12-1,14,16,9c13-3,33-6,45-6c15,0,23-6,23-17c0-20,53-50,58-33c6,18,20,11,57-27c20-21,42-38,48-38c10,0,46-20,76-42
		c2-2-7-12-20-24c-13-11-25-16-27-10c-5,15-32,14-32,0c0-17,66-79,85-79c8,0,15-7,15-15c0-15,48-40,58-31c9,10-8,37-30,46
		c-30,12-58,35-58,47c0,5,9,19,20,31c17,18,24,20,40,9c11-6,20-17,20-23c0-7,9-14,20-17c15-4,18-10,13-24c-6-15-5-16,9-5
		c12,9,18,10,23,2c4-7,18-9,31-6c17,5,24,2,24-9c0-8,4-15,10-15c5,0,10-7,10-15s9-15,20-15c15,0,20-7,20-27c1-25,2-26,14-11
		c12,17,14,17,31-2c22-24,35-26,35-5c0,18,26,20,37,3c4-7,6-20,5-28c-1-9,11-26,28-38c33-25,41-11,13,21c-17,18-17,18,12,6
		c17-8,34-19,38-26c5-8,12-11,17-8s11,1,15-5c3-5,10-10,16-10c17,0,9,21-16,44c-14,13-25,30-25,39c0,15-88,72-98,63c-8-8,9-26,24-26
		c9,0,22-6,30-14c7-8,19-16,26-19c7-2,9-8,5-13c-4-4-16-3-25,4c-9,6-33,19-52,27c-44,20-82,65-69,82c14,17-45,56-72,48
		c-15-5-22-2-26,14c-3,12-10,22-17,23c-6,0-16,2-21,2c-17,3-55,26-55,34c0,4,10,12,22,17c19,8,28,5,58-24c19-18,49-40,67-47
		c17-7,38-20,46-29c9-8,26-16,39-17c13-2,28-12,33-23c6-11,19-21,30-24c11-2,24-10,28-17c5-8,13-12,19-8c10,7,51-11,80-34
		c21-17,29-3,19,33c-4,19-10,25-15,17c-15-25-32-12-33,28c-2,44,14,62,32,37c13-18,45-23,45-7c0,6-4,10-10,10c-13,0-89,53-90,63
		c0,4,4,7,10,7c5,0,7,7,4,15c-4,8-15,15-25,15s-24,9-31,20s-18,20-24,20c-14,0-39,28-31,36s64-23,70-38c3-10,9-10,23-2
		c15,9,26,7,51-7c28-16,33-16,33-4c0,8-6,15-13,15s-20,9-30,20c-9,11-26,20-37,20s-20,6-20,14c0,7-9,25-20,39l-20,25l24-6
		c13-4,42-24,65-44c22-21,45-38,51-38s13-7,16-15s15-17,26-21c11-3,36-17,55-30c45-30,68-32,27-2c-17,13-52,39-78,58
		c-32,24-43,36-32,38c31,7,15,21-26,24c-38,3-43,6-46,30c-5,40-82,94-82,57c0-5-5-7-11-3c-8,5-8,9,1,14c18,11,7,24-62,70
		c-47,31-63,38-71,28c-6-10-8-9-4,3c5,16-9,39-25,39c-4,0-8-12-8-26c0-16-5-24-13-21c-6,2-11,11-9,21c2,9-4,16-11,16
		c-8,0-17,14-21,30c-3,20-14,34-30,40c-32,12-40,28-24,47c11,15,10,16-9,11c-13-4-23-2-23,4c0,5,9,12,19,15c23,6,35,44,18,55
		c-22,14-37,8-37-16c0-13-7-26-15-30c-8-3-15-12-15-21c0-26-29-16-45,15c-9,17-19,30-24,30c-14,0-71,63-71,78c0,12-3,12-15,2
		c-14-12-14-15,1-31c10-11,14-22,11-25c-8-9-42,31-63,74c-16,31-34,43-34,22c0-5-5-10-11-10c-16,0-39,27-39,45c0,11-5,15-15,11
		s-15,1-15,14c0,24-15,26-24,4c-5-13-9-14-21-4c-8,7-15,21-15,31s-6,22-14,26c-7,4-17,19-21,31c-6,21-4,23,14,17c12-4,21-2,21,4
		s7,11,15,11s15,4,15,9c0,14-28,22-36,10c-3-6-17-14-30-19c-21-8-30-27-25-54c1-4-16,6-39,24c-22,17-40,33-40,35s3,11,7,21
		c6,16,7,16,14-2c6-16,8-15,8,8c1,15,5,30,11,33c15,9,12,41-6,56c-11,9-20,10-32,3c-25-17-26-34-1-34h23l-22-22l-22-22l-25,24
		c-21,20-29,22-45,13c-20-13-25-9-50,39c-7,16-17,28-22,28c-11,0-10-18,2-25c13-8,13-25,0-25c-6,0-10,7-10,15s-9,15-20,15
		s-20,4-20,8c0,5-11,15-25,22c-15,8-25,22-25,35c0,12-7,36-16,53c-11,24-22,32-42,32c-25,0-25-1-6-14c14-11,16-17,7-26
		c-8-9-24-2-67,29c-30,23-58,41-61,41c-17,0-125,105-125,122c0,11,4,16,10,13c5-3,10-15,10-26c0-25,17-25,25,1c4,11,15,20,26,20
		c15,0,20,6,17,22c-4,25-28,37-28,14c0-10-9-16-23-16c-12,0-32-3-45-6c-20-6-22-3-22,27c0,26,3,30,12,21c17-17,28-15,28,6
		c0,9-11,22-25,29c-22,10-25,9-25-7c0-20-27-46-37-36c-3,3-1,6,5,6c7,0,12,7,12,16c0,10-6,14-15,10c-8-3-15-2-15,2c0,5-9,18-20,30
		c-12,12-16,22-10,22c5,0,10,11,10,25c0,18,5,25,20,25c30,0,23,22-15,47c-35,22-58,16-30-7c23-19,18-40-10-40c-18,0-29,8-37,25
		c-6,14-17,24-24,21c-6-2-22,3-35,12s-38,17-54,17c-24,0-31,5-33,23c-3,16-8,22-19,18c-23-9-34,3-23,24c13,23-5,37-25,20
		c-15-12-35-6-35,11c0,6,9,7,20,4c18-6,20-3,14,19c-4,19-2,26,8,26c8,0,22,8,32,19c11,12,25,16,41,13s25,0,25,8c0,7,7,10,15,6
		c22-8,18,11-5,27c-24,17-15,29,16,21c21-5,24-2,24,20c0,16,6,26,15,26s15,9,15,25c0,14,6,25,13,25c6,0,26,14,42,32
		c30,31,30,32,30,148c0,84-4,122-14,133c-7,9-11,26-8,37c4,14-1,25-14,33c-10,6-19,22-19,34c0,17-6,23-23,23c-34,0-97,79-97,122
		c0,25-6,36-22,43c-13,6-24,18-26,28c-3,15,0,16,23,5c19-8,28-9,37,0c8,8,4,14-16,22c-15,5-35,10-45,10c-22,0-55,35-46,49
		c3,7-3,11-15,11c-15,0-20,5-18,18c2,9,8,17,13,17c14,0,35,15,35,23c0,5-12,8-27,7c-20,0-28,6-33,24c-7,32-30,39-37,12
		c-6-23-11-25-32-12c-12,7-10,14,8,37c31,39,57,55,78,48c15-6,16-4,5,7c-17,18-15,50,4,77c13,18,13,26,3,38c-17,21-3,30,16,10
		c22-21,25-21,60,15c48,49,93,59,80,18c-4-11-2-19,5-19c6,0,8-10,4-25c-5-22-3-25,18-25c14,0,33-9,43-20s21-17,25-15
		c15,9,40-7,40-27c0-12-4-17-12-12c-7,4-8,3-4-4s18-12,32-12c23,0,24-2,18-38c-4-20-12-40-17-44c-6-4,11-5,38-3c28,2,60,1,72-2
		c26-6,31-23,7-23c-8,0-12-5-9-10s15-10,26-10c10,0,19-7,19-15c0-24,89-105,108-98c10,4,13,2,8-5c-4-7,4-22,19-36c17-15,23-30,20-42
		c-5-15-3-15,11,3l16,23l20-25c11-14,25-25,32-25s29-18,49-40c23-26,41-38,51-34c11,4,40-18,91-67c41-41,83-77,92-80
		c36-14,102-81,123-125c21-42,55-84,69-84c3,0,21,13,40,29s41,27,49,24c8-4,19,1,24,10c5,10,14,17,20,17s20,8,30,17
		c14,13,21,14,30,5c15-15,38-16,38-2c0,18-52,60-74,60h-20l21,21c20,20,22,20,47,4c23-16,26-16,26-1c0,10,9,16,24,16
		c26,0,40,14,41,40c0,34,34,19,73-34c23-30,42-59,42-65c0-5,29-45,65-90c36-44,65-82,65-85c0-16,52-58,65-52c19,7,19,22,0,30
		c-8,3-15,12-15,19c0,8-6,20-14,27c-8,6-12,18-10,25c3,7-4,18-15,25c-12,6-21,17-21,25c0,7-6,15-13,18c-6,2-9,8-4,13c4,4,15-2,23-15
		c9-12,22-20,30-17s14-1,14-9c0-13,56-35,90-35c9,0,21-5,27-11c8-8,18-6,37,7c30,22,33,34,9,34c-14,0-15,2-4,12c11,11,14,11,18,1
		c8-22,27-14,57,23c23,29,33,34,53,29c21-5,24-3,19,11c-3,9-1,23,5,31c9,11,7,19-10,36c-11,13-21,31-21,40s-5,17-10,17
		c-6,0-10,5-10,11s7,8,16,5c36-14,54,3,54,50c0,48,4,52,26,29c9-8,20-15,25-15c12,0,11,24-2,37c-8,8-7,17,3,32c10,17,10,25,0,41
		c-6,11-12,30-12,43s-5,28-12,35c-9,9-9,12,0,12c7,0,12-4,12-10c0-5,11-10,25-10c29,0,32,15,13,68c-10,28-10,36-1,39
		c7,3,13,14,13,25c0,12,8,26,17,33c10,7,18,27,19,44c1,27-2,31-23,31c-14,0-38-11-55-25c-29-25-107-37-93-15c3,6-1,7-10,3
		c-9-3-12-9-7-12s6-14,3-25c-6-16-11-13-35,19c-21,27-25,39-16,45c9,5,9,9,1,14c-6,4-16,4-21,1c-6-3-14,4-19,17
		c-10,25-75,103-133,158c-127,122-170,168-175,188c-4,16-9,20-18,12c-17-14-52,24-37,42c6,7,8,26,5,41c-5,26-8,28-42,22
		c-31-5-42-2-64,19c-16,15-27,36-27,51c0,20-5,25-24,25c-29,0-41,15-41,50c0,18-5,24-18,22c-22-4-77,34-77,54c0,8,7,14,15,14
		c18,0,18,5,5,31c-15,27-30,23-31-8c0-19-3-23-7-13c-15,33-45,70-57,70c-7,0-15-9-18-19c-4-15-12-19-33-17c-23,3-30,9-34,32
		c-4,21-12,30-28,32l-23,3l25,20c30,24,46,24,46,1c0-11,10-27,21-38l22-19l-7,30c-4,17-13,35-20,40c-7,6-21,22-30,38
		c-22,32-32,34-39,6s-43-21-40,7c2,17-3,20-27,16c-25-4-28-1-23,17c4,16,1,21-15,21c-22,0-42,21-26,27c5,2,16,8,24,13
		c13,8,13,11,1,22c-11,10-14,10-18,1c-3-7-15-13-29-13c-17,0-22,4-18,15c4,8,1,15-5,15s-11,9-11,20s-7,20-15,20s-15,9-15,20
		s-6,20-13,20c-19,0-39,39-32,63c6,22,6,22-10,2c-14-17-17-18-25-5c-5,8-10,25-10,37c0,28-17,38-35,23c-12-10-16-9-21,6
		c-4,11-16,27-28,36c-18,15-19,20-8,38c17,28-1,64-30,57c-12-3-27,2-39,14c-10,10-28,19-40,19c-16,0-19,4-14,20c5,17,2,20-25,20
		c-32,0-32,0-26,43c12,72,11,80-2,84c-7,3-12-3-12-14s-9-29-20-41c-22-23-40-29-40-12c0,21-20,9-21-12c-1-22-1-22-8-3
		c-4,11-13,32-20,47c-11,22-12,30-1,43c7,8,18,15,25,15c6,0,19,8,28,18c14,16,14,17-9,18c-13,1-24-2-24-7c0-19-28-8-34,13
		c-5,22-6,22-20,3c-18-24-20-47-5-62c6-6,8-17,3-25c-6-9-10-6-14,12c-5,19-12,24-30,22c-13-1-27-8-32-14c-4-7-10-9-15-5
		c-4,5-2,11,4,15s14,24,18,45c7,37,18,46,30,27c10-16,25-1,25,23s-22,93-33,103c-12,13-7,24,8,18c11-4,15,1,15,17c0,13,3,35,7,48
		l6,23l-28-18l-28-18l12,23c11,19,10,25-6,37c-10,7-32,14-50,14c-25,0-32,5-35,22c-2,14-12,24-28,28c-18,4-26,14-28,32
		c-4,32-36,63-57,54c-11-4-14-13-9-33c5-23,4-26-7-15c-7,6-21,12-31,12c-13,0-18,8-18,25c0,18,5,25,20,25s20,7,20,25
		c0,17-5,25-18,25c-36,0-60-13-67-33c-7-21-7-21-12-3c-3,11,2,23,11,28c21,12,21,29,0,21c-9-3-24,3-35,16l-20,22l24-6
		c24-6,25-5,22,37c-1,23-3,47-4,52c0,4-11,6-24,2c-17-4-27,2-42,25c-19,29-62,55-73,45c-3-3,0-11,6-18c8-10,4-13-14-14
		c-19-2-24,3-24,23c0,19-4,23-18,19c-10-4-27,0-38,8c-15,12-16,17-7,27c10,10,8,18-9,36c-19,20-19,23-4,23c9,0,20-8,23-17
		c7-19,64-75,70-69c8,8-22,57-44,72c-17,10-23,22-20,35c4,13,0,19-13,19c-9,0-29,10-44,21c-15,12-29,19-32,16c-3-2,7-14,22-26
		s24-24,20-28c-3-4-22,9-41,27c-23,22-32,37-25,44c6,6-3,24-25,52c-19,23-35,47-35,53s-5,11-11,11s-34,20-62,45l-52,46l-3-36
		c-3-33-11-43-25-28c-4,3-2,12,4,19c7,8,7,14-1,19s-8,11,1,21c14,17,20,192,7,200c-11,7-10,44,2,44c5,0,9,15,7,33c-1,17-6,31-10,31
		c-35-7-47-15-47-31c0-15,2-15,10-3c14,22,23,5,10-19c-6-12-15-19-21-15c-5,3-16,0-24-6c-19-16-43-6-56,22c-21,48-35,64-49,60
		c-12-4-12-1,2,14c11,12,16,35,16,67c-1,43-3,47-26,47c-31,0-62-26-62-52c0-10-4-18-8-18c-17,0-52,42-52,61c0,12-8,23-20,26
		s-20,14-20,26c0,16-3,18-12,9c-18-18-30-14-19,6c8,15-1,30-47,80c-31,34-60,62-63,62c-4,0-9-9-12-20c-6-24-32-26-41-4
		c-4,11,1,22,14,31c11,8,18,19,14,24c-4,6-11,6-20-2c-20-17-44-3-44,26c0,22,3,25,25,19c34-8,34,22,0,38c-16,7-25,19-25,35
		c0,26-25,32-34,8s-47,4-41,30c2,11-1,8-7-7c-15-36-24-35-37,3c-10,28-9,30,11,23c20-6,21-4,16,40s-4,46,21,47c14,1,33,2,41,3
		c8,2,25,3,37,4c13,1,23,9,23,17s4,15,10,15c5,0,10,5,10,10c0,6-14,10-30,10c-20,0-40,9-56,25c-14,14-34,25-46,25c-20,0-20-1-4-19
		c15-17,13-51-4-51c-16,0-41,40-47,75c-4,25-12,39-25,43c-23,6-16,38,13,64c23,20,26,68,4,68c-8,0-15-9-15-19c0-30-21-37-41-13
		c-16,20-59,31-59,15c0-4,10-18,22-31c19-19,23-34,21-79c-2-47,1-56,18-60c22-6,26-43,4-43c-9,0-20,11-25,25s-15,25-22,25
		c-26,0-118,84-118,108c0,13-6,22-15,22c-11,0-15,11-15,37c0,21-8,45-18,56c-16,19-16,20,5,34c13,9,23,24,23,33c0,10,6,21,12,24
		c7,3,3,3-9,0c-30-7-47,4-33,21c6,7,8,24,5,38c-5,18-13,24-36,25c-35,1-38-19-6-41c12-8,19-18,14-23c-4-4-13-2-19,4
		c-18,18-28,14-28-11c0-18-5-23-28-22c-21,0-27-4-26-21c1-30-23-20-42,18c-8,16-28,34-45,40c-33,11-36,20-14,38c18,15,20,60,2,60
		c-7,0-18-5-25-12c-16-16-68,22-64,47c6,33-8,64-30,67c-13,2-31,18-43,37c-11,19-35,50-52,69c-18,19-33,37-33,42c0,4-7,13-15,20
		s-13,15-10,19c2,4-5,15-16,25c-11,9-19,22-17,28c3,7-4,20-14,30s-18,29-18,43c0,26-15,34-24,13c-9-24-38,25-32,55c5,22,0,33-21,51
		c-22,19-32,22-57,15c-45-13-56-11-56,10c0,17,5,19,35,14l35-6v41c0,59-33,65-54,8c-4-11-12-16-22-12c-9,3-19,6-24,6s-5,14,0,31
		c15,53-26,92-55,52c-9-11-28-17-66-17c-48-1-54-3-57-23c-4-30-20-29-32,2c-8,22-15,25-45,22c-24-3-39,1-50,13c-9,10-24,16-33,13
		c-16-4-97,67-97,85c0,4-8,6-18,5c-9-2-17,1-17,5c0,9-65,82-73,82c-4,0-7-11-7-25s4-25,10-25c5,0,10-7,10-15c0-9,7-18,15-21
		c8-4,15-15,15-25c0-27-18-24-22,3c-2,13-15,29-30,36c-16,7-28,19-28,26c0,16-46,56-64,56c-7,0-16,9-19,20s-15,24-27,28
		c-20,7-20,9-6,21c20,17,20,35,0,52c-18,15-38,58-35,76c1,7-8,17-19,23c-12,6-19,17-17,23c2,7,0,21-6,31c-9,18-10,18-22,2
		c-12-15-15-15-45,11c-18,15-39,41-46,58l-13,30l-1-32c0-22-5-33-14-33c-22,0-28,17-16,41c7,11,9,23,6,26s-9-5-14-18l-9-23l-13,24
		c-7,14-21,35-32,46c-12,14-16,24-9,28c7,5,7,13-2,26c-14,24-27,26-27,4c0-8-5-12-10-9c-8,5-7,11,1,21c6,8,8,14,3,14c-4,0,1,7,12,15
		c17,14,18,16,3,28c-9,7-18,21-20,32c-3,13-14,21-32,23c-16,2-27,9-27,19c0,9-6,13-15,9c-10-3-18,1-22,11c-4,9-1,19,5,21
		c18,6,14,30-6,43c-15,9-17,22-14,81l4,70l-31-7c-37-8-39-2-7,31c18,20,22,33,17,55c-9,45-26,40-29-8c-3-42-14-54-28-32
		c-10,17-95,5-106-15c-7-13-13-14-22-6c-10,7-17,6-25-4c-9-11-7-15,14-20c37-9,31-24-12-28c-31-3-38-8-44-32c-6-23-3-32,18-52
		c14-13,30-24,34-24c5,0,9-4,9-10c0-5-11-10-24-10c-14,0-28-4-31-10c-3-5,1-10,9-10c9,0,16-7,16-15c0-7,8-18,17-24c14-8,11-9-17-8
		c-26,2-36-2-38-15c-3-15,4-18,33-18c59,0,174-22,185-36c9-10,2-11-31-7c-25,4-44,2-48-5s-40-12-84-14c-69-1-99-10-85-24
		c3-2,29-6,59-9s61-6,69-7c39-4,51,2,45,22c-6,18-2,20,34,20c22,0,46-6,53-13c7-8,18-12,24-10s16-8,22-22s16-25,21-25s14-13,20-30
		c5-16,15-30,20-30c6,0,11-7,11-16c0-14-3-14-15-4c-22,18-27,8-14-29c7-20,16-30,25-27c7,3,16-4,19-15c7-21,20-25,30-8
		c4,5,0,18-9,28c-17,19-21,31-8,31s46-64,47-90c0-21-5-26-33-28c-31-3-45,11-20,21c7,3-4,4-25,2c-21-1-40-5-43-8c-11-11,7-27,30-27
		c16,0,23-5,22-17s12-20,44-28c29-7,46-17,48-28c4-22-24-33-42-18c-8,7-20,11-28,10c-26-3-38,1-38,15c0,19-57,59-71,50
		c-9-5-10,1-5,20c8,31-4,34-29,6s-33-26-78,22c-25,26-48,42-59,40c-10-2-18,2-18,7c0,6-6,11-14,11c-7,0-33,20-57,45
		c-37,38-46,43-57,31c-11-10-11-19-3-34c15-28,15-29-14-36c-27-7-25-31,7-54c10-7,18-18,18-23c0-6-20,6-44,25c-23,20-47,36-51,36
		c-14,0-34-34-35-59c0-23-1-24-20-6c-25,23-25,35-1,35c32,0,36,46,6,81c-14,17-25,35-25,40s-7,9-15,9c-9,0-21,11-27,25s-16,25-22,25
		s-36,27-65,60c-30,33-62,60-72,60c-17,0-120,99-128,123c-2,7-17,27-34,45c-17,17-26,32-21,32c6,0,19-10,30-22c43-48,144-97,144-70
		c0,5-13,21-30,37c-24,23-32,26-44,16c-11-9-16-9-22,0c-4,6,0,16,10,21c9,5,13,14,10,20c-5,7-11,5-20-6c-11-16-14-16-38,5
		c-14,12-26,26-26,31c0,12,34,10,48-4c22-22,13,5-10,29c-23,25-44,30-50,11c-2-6-10-8-16-4c-9,5-8,14,3,37c9,16,13,34,10,39
		c-4,6,1,13,10,16c10,4,13,13,10,25c-4,11-2,19,4,19s11,5,11,11s-7,9-15,5c-17-6-20,5-4,21c7,7,0,12-26,17c-43,8-44,11-47,101l-3,70
		l-43,3c-37,3-44,0-49-17c-5-19-13-21-79-21c-40,0-75-4-78-9c-3-4,3-16,14-26c28-25,25-32-15-39c-25-5-42-2-57,9c-13,8-39,15-59,15
		c-30,0-38-4-43-24c-3-13-15-26-27-29c-20-5-21-11-16-61c5-54,5-56-21-62c-48-10-54-14-59-34c-6-22-28-20-71,6c-20,13-25,13-49-6
		c-14-11-33-20-42-20c-10,0-23-6-30-12c-11-11-13-10-9,2c3,8-2,27-10,42c-25,44-62,48-62,7c0-23-13-25-30-4c-10,13-10,19,3,33
		s14,21,5,30s-6,12,15,12c15,0,27,3,27,8c0,18-32,51-53,54c-23,4-24,8-13,44c6,19,3,21-39,20c-39-1-46-4-54-28s-15-27-43-25
		c-48,4-50,38-4,81c25,24,32,36,24,44s-20,7-42-5c-59-30-66-33-85-33c-11,0-21,5-23,11c-3,9-9,9-26,0c-14-7-28-8-39-2
		c-56,29-97,41-145,41c-36,0-62,6-83,20c-38,25-51,25-58-1c-4-16-11-19-27-14c-14,5-28,1-42-12c-20-18-21-17-52,18
		c-28,33-68,58-64,41c1-4-2-15-6-24c-4-10-4-30,2-45c8-24,6-32-15-54c-34-37-33-80,3-123c16-19,37-35,46-35c13-1,18-9,18-29
		c0-35,9-45,27-30c11,9,21,5,46-18c17-16,33-30,35-31s5-21,7-45c3-58,3-58,16-58c6,0,9,9,6,20c-4,15,0,20,14,20c11,0,27-9,36-20
		c10-11,28-20,40-20c13,0,23-6,23-14s14-22,32-30c38-19,36-19,34-2c-2,30,19,16,26-16c9-45-6-58-32-25c-11,14-34,28-50,32
		c-17,4-30,11-30,16s-5,9-10,9c-6,0-10-7-10-15c0-18-12-19-28-3c-9,9-12,8-12-4c0-22-51-46-86-42c-18,2-37-4-49-15
		c-11-10-29-23-40-29c-17-10-18-11-3-12c19,0,25-16,8-22c-6-2-12-29-14-61c-1-32-8-63-14-69c-9-9-12-9-12,1c0,12-24,45-75,104
		c-8,9-16,28-17,42c-2,18-7,24-19,20c-11-4-47,24-111,87c-93,91-166,157-141,128c7-8,13-23,13-33c0-16-3-17-14-8
		c-35,30-216-20-216-59c0-12-10-21-28-25c-15-3-40-19-56-35c-15-17-32-30-36-30c-18,0-66,22-85,39c-11,10-32,21-48,25
		c-15,3-27,13-27,20c0,8-13,20-29,27c-19,9-31,23-35,41s-15,32-31,38c-14,5-28,18-32,27c-10,28-67,93-80,93c-7,0-20,12-30,28
		c-40,64-251,275-269,268c-7-3-18,2-23,11c-4,9-18,17-30,18c-13,1-68,47-136,115c-96,94-121,113-147,114c-22,1-43,11-65,34
		c-37,37-46,68-10,34c29-27,37-28,30-2c-7,27-55,47-126,53c-44,4-57,2-57-8c0-8,4-17,10-20c5-3,10-15,10-26c0-14,7-19,25-19
		c14,0,25-6,25-12c0-7,12-26,26-41c21-25,27-27,41-15c14,11,15,11,11-2c-3-8,5-30,19-47c29-40,9-46-27-8c-15,16-33,24-49,23
		c-18-2-26,2-29,17c-6,29-22,45-43,45c-28,0-23-30,11-67c30-32,27-49-5-37c-14,6-16,1-13-27c2-19,7-34,13-34c5,0,26-15,45-33
		c28-27,36-30,38-16c2,9,0,19-5,23c-4,3-19,19-32,34l-25,27l32-11c18-6,32-14,32-17c0-4,7-15,15-25c13-18,16-16,55,25
		c29,29,44,39,47,29c3-7,16-22,29-34c17-14,22-27,18-43c-5-19-1-24,20-30c21-5,24-9,15-20c-15-18-39-18-39,0c0,7-6,25-13,39
		c-11,20-17,23-25,15c-18-18-14-31,18-60c35-31,39-58,9-58c-27,0-61,41-48,57c13,15-9,29-24,14c-8-8-16-6-28,5c-10,9-23,13-28,9
		c-12-7,37-75,54-75c14-1,85-68,85-80c0-6,4-10,9-10c15,0,22-33,9-42c-10-6-10-8,1-8c8,0,12-3,9-6c-9-9-49,16-43,26c9,15-17,24-26,9
		c-8-12-10-12-18,0c-5,8-7,20-4,28s2,13-3,12c-26-4-36,2-31,21c3,10-1,24-8,30c-11,9-15,4-20-24c-7-33-3-41,51-103
		c56-66,55-65-34,21c-50,50-89,92-87,95c3,2,13-3,23-12c18-16,19-16,32,7c17,32,6,64-15,46c-12-10-15-9-15,4c0,9-11,21-25,26
		c-23,9-29,24-28,68c1,6-8,12-19,12s-16-4-12-11c11-18-15-27-57-22c-26,4-39,2-39-6c0-12,54-69,104-111c26-21,31-33,34-73
		c1-30-1-46-7-42c-6,3-6-6,0-25c12-34,45-44,34-10c-5,14-2,20,9,20c9,0,16-9,16-20c0-13,7-20,19-20c10,0,21-8,24-19c4-16-1-18-42-15
		c-25,1-51-2-57-7c-8-7-14-6-19,1c-11,17-22,11-21-12c1-26,23-47,49-48c9,0,27-11,39-25c11-13,24-22,28-20c4,3,16-7,25-22
		c17-25,17-26-2-21c-12,3-24-1-31-12c-17-28-71-14-119,32c-23,23-46,37-53,33c-8-5-8-10,1-21s8-14-5-14c-21,0-32,28-18,42
		c8,8,5,14-11,23c-14,7-22,20-22,37c0,14-3,30-8,34c-4,4-7,15-7,25c0,20-31,33-59,24c-16-5-20,1-26,35c-7,42-14,47-47,29
		c-14-8-23-8-31,0c-17,17-27,13-27-10c0-16,4-19,20-14s20,2,20-19c0-14-3-26-8-26c-11,0-68,62-75,83c-5,14-2,16,18,11
		c21-5,25-3,25,15c0,14,6,21,20,21c23,0,27,15,5,24c-8,3-15,12-15,21c0,12-6,14-26,9c-32-8-80,31-63,52c6,8,8,26,4,44
		c-7,33-34,41-55,15c-10-12-16-13-26-4c-16,13-18,5-5-20c6-10,8-27,5-38c-5-19-7-19-32,7c-15,15-32,36-38,46c-17,29-34,29-34,0
		c0-19,5-26,20-26c13,0,20-7,20-20c0-10,9-24,20-30c12-6,20-21,20-36c0-35,46-110,73-119c19-6,19-8,4-12c-19-5-69,32-83,62
		c-5,11-19,21-31,23c-21,3-83,58-83,74c0,4,7,8,15,8s15,5,15,11c0,7-10,9-24,5c-14-3-28-1-31,4c-4,6-10,8-15,5s-11-1-15,5
		s-10,8-15,5s-21,10-37,30c-15,19-36,35-46,35c-21,0-57,35-57,55c0,8-9,15-20,15s-29,13-41,30c-17,23-28,28-46,24c-14-4-23-2-23,5
		c0,6,4,11,10,11c14,0,12,32-4,53c-18,23-24,12-28-46c-2-26-5-47-9-47c-13,0-27,24-22,39c4,12,3,13-5,2c-6-9-17-11-33-6
		c-15,5-5-7,28-34c29-22,56-41,60-41c9,0,163-148,163-156c0-15-54,10-75,34c-17,20-27,24-35,16s-1-20,30-44c35-28,41-38,38-62
		c-5-33,6-37,24-8c12,19,13,19,35-2c13-12,23-27,23-35c0-7,5-13,12-13c17,0,48-31,48-48c0-11-9-7-30,13c-35,33-39,21-9-31
		c18-33,19-39,5-52c-12-12-20-13-38-5c-13,6-31,14-42,17c-14,5-16,9-7,20c9,10,8,16-4,26c-8,7-15,17-15,23c0,12-60,77-71,77
		c-13,0,36-90,48-90c7,0,13-11,13-24c0-34,17-77,41-102c13-14,17-24,10-29c-16-9-13-25,4-25s19-9,6-28c-7-11-9-11-14,2
		c-4,9-13,16-21,16c-9,0-18,11-22,25c-3,14-12,25-20,25s-14,9-14,20c0,10-14,35-30,53c-17,19-30,40-30,46s-6,11-14,11
		c-16,0-28,24-20,44c4,11-4,14-30,13c-20-1-36-5-36-9c0-12,22-48,42-70c11-11,18-34,18-59c0-36-2-40-15-29c-9,7-13,21-10,31
		c4,12,1,21-9,25c-9,3-16,10-16,16c0,5-16,25-35,45c-34,35-36,35-54,19c-11-10-25-15-30-11c-16,9-13,25,3,19c11-4,13,0,9,16
		c-3,12-12,24-19,27c-19,7-17,16,6,31c18,11,24,9,51-18c31-30,49-32,49-3c0,10,6,13,16,9c24-9,7,33-30,74c-17,19-41,46-51,60
		c-17,21-17,22-2,11c27-21,47,2,23,28c-10,11-13,22-8,25c10,6,42-35,42-52c0-13,54-62,68-62c7,0,17-11,22-25s17-25,26-25
		c11,0,14,5,10,16c-3,9-6,20-6,25s-7,9-15,9s-15,5-15,12c0,6-12,27-26,46l-27,34l24-7c13-4,35-17,47-29l24-21l-4,25
		c-2,17-8,24-20,22s-20,6-24,23c-5,20-12,25-37,25c-35,0-93,40-103,72c-4,13-24,44-45,69c-45,54-46,59-19,59c11,0,20-4,20-10
		c0-5,12-13,27-16c16-4,36-14,45-22c10-9,18-10,18-4s-21,28-48,48c-87,70-130,115-125,134c3,11-9,30-34,54
		C711,11094,698,11100,659,11100z M839,10560c12,0,25-20,18-27s-27,6-27,18C830,10556,834,10560,839,10560z M2378,10538
		c19-19,14-28-13-28c-18,0-25,5-25,20C2340,10552,2360,10556,2378,10538z M2060,10525c8-9,8-15,2-15s-14,5-17,11
		C2034,10538,2046,10542,2060,10525z M1610,10489c0-20,7-21,57-2c25,10,13-14-13-26c-18-8-30-8-39-1c-7,6-19,8-27,5
		c-12-5-14,0-11,19C1583,10515,1610,10519,1610,10489z M2338,10490h26l-22-22c-16-16-25-19-33-11c-6,6-8,16-5,22
		C2308,10485,2323,10490,2338,10490z M2342,10444c2,12,7,11,25-4c13-10,23-22,23-26s10-19,22-32l23-24l-37,22c-20,11-42,27-48,35
		S2340,10436,2342,10444z M667,10410c38-48,38-67,0-25c-20,22-36,43-37,48C630,10448,646,10438,667,10410z M2340,10370
		c5,0,10-5,10-11c0-5-5-7-10-4c-6,3-10,8-10,11C2330,10368,2334,10370,2340,10370z M2479,10341c17-13,20-20,11-26c-7-4-20,1-32,13
		C2432,10354,2449,10364,2479,10341z M1869,10298c16-26,16-33,0-33c-7,0-15-8-19-19c-6-17-8-16-23,8c-16,23-16,26-2,26
		c12,0,15,6,10,20C1826,10328,1851,10326,1869,10298z M2360,10310c5,0,10-5,10-11c0-5-5-7-10-4c-6,3-10,8-10,11
		C2350,10308,2354,10310,2360,10310z M1104,10249c15-31,14-49-5-49c-5,0-9,9-9,21c0,15-5,19-18,15c-15-5-18-1-17,16
		C1058,10287,1086,10286,1104,10249z M759,10274c5,4,15-3,21-15c15-28,7-34-14-10C755,10261,753,10270,759,10274z M1330,10250
		c5,0,10-4,10-10c0-5-5-10-10-10c-6,0-10,5-10,10C1320,10246,1324,10250,1330,10250z M995,10240c11-17-5-32-21-19c-7,6-11,15-8,20
		C973,10253,987,10252,995,10240z M1339,10210c5,0,13-4,16-10c3-5,2-10-4-10c-5,0-13,5-16,10C1332,10206,1333,10210,1339,10210z
		 M1032,10185c3,3,11-1,18-10s11-18,8-20c-3-3-11,1-18,10S1029,10183,1032,10185z M845,10170c17-18,17-20,1-20c-9,0-19,7-23,15
		C814,10190,825,10192,845,10170z M2250,10170c5,0,10-5,10-11c0-5-5-7-10-4c-6,3-10,8-10,11C2240,10168,2244,10170,2250,10170z
		 M1119,10160c12,0,21-4,21-10c0-5-6-10-14-10s-18,5-21,10C1102,10156,1108,10160,1119,10160z M1268,10142c9,9,12,9,12-1
		c0-7,7-19,15-28c12-12,13-18,4-29c-15-19-30-18-23,1c4,8,1,22-6,31C1260,10127,1260,10134,1268,10142z M6429,10099
		c-5-11-15-17-21-13c-5,4-14,0-19-7c-6-10-9-7-9,12s6,28,22,33C6444,10135,6447,10132,6429,10099z M1100,10120c5,0,10-4,10-10
		c0-5-5-10-10-10c-6,0-10,5-10,10C1090,10116,1094,10120,1100,10120z M6300,10060c5,0,10-5,10-11c0-5-5-7-10-4c-6,3-10,8-10,11
		C6290,10058,6294,10060,6300,10060z M4393,10013c11-10,8-20-8-27c-10-4-15,1-15,14C4370,10020,4381,10026,4393,10013z M5582,10000
		c2,8,8,7,17-4c16-19,6-35-10-19C5583,9983,5580,9994,5582,10000z M5646,9970c8,0,12-4,9-10c-3-5-10-10-16-10c-5,0-9,5-9,10
		C5630,9966,5637,9970,5646,9970z M4380,9900c5,0,10-4,10-10c0-5-5-10-10-10c-6,0-10,5-10,10C4370,9896,4374,9900,4380,9900z
		 M5670,9880c0-6,10-10,22-9c45,6,68-33,27-44c-23-6-82,30-76,47C5648,9888,5670,9894,5670,9880z M4400,9860c5,0,10-4,10-10
		c0-5-5-10-10-10c-6,0-10,5-10,10C4390,9856,4394,9860,4400,9860z M1354,9850c3,0,8-4,11-10c3-5,1-10-4-10c-6,0-11,5-11,10
		C1350,9846,1352,9850,1354,9850z M4170,9840c11,0,20-1,21-2c5-21,6-58,1-58c-16,1-42,28-42,44C4150,9833,4158,9840,4170,9840z
		 M4420,9830c5,0,10-7,10-15c0-9,7-18,15-21c17-7,21-54,4-54c-18,0-38,32-39,63C4410,9818,4414,9830,4420,9830z M1346,9808l19-23
		l-23,19c-12,11-22,21-22,23C1320,9835,1328,9829,1346,9808z M5738,9784c12,7,38-22,28-31c-3-4-14,0-22,9
		C5734,9771,5732,9780,5738,9784z M4149,9790c6,0,11-11,11-25c0-16,6-25,15-25c8,0,15,5,15,11s7,3,16-6c18-18,12-29-22-39
		c-18-5-22-1-27,21c-3,16-9,36-12,46C4141,9783,4142,9790,4149,9790z M1100,9790c12,0,25-28,17-36c-9-9-27,6-27,22
		C1090,9784,1095,9790,1100,9790z M4271,9728c7-13,25-35,41-50c30-28,35-63,8-63c-8,0-19,10-25,23c-5,12-17,24-25,27
		c-10,3-16,19-17,45C4251,9756,4254,9759,4271,9728z M5455,9721c4-13,1-27-9-37c-14-14-15-12-9,18C5445,9744,5447,9746,5455,9721z
		 M4435,9720c24,0,75-55,75-81c0-13,10-33,22-46c16-17,18-23,7-23c-22,0-39,21-39,46c0,12-18,40-41,63
		C4430,9708,4423,9720,4435,9720z M4103,9703c4-3,7-13,7-21c0-12-3-12-15-2c-8,7-15,16-15,21C4080,9712,4094,9713,4103,9703z
		 M4663,9693c4-6,0-24-8-39c-12-23-15-25-14-9C4642,9676,4656,9705,4663,9693z M5525,9680c4-6-2-13-12-17c-10-3-21-8-26-10
		c-4-2-7,0-7,4C5480,9671,5518,9691,5525,9680z M5570,9660c5,0,10-7,10-16c0-8-5-12-10-9c-6,3-10,10-10,16
		C5560,9656,5564,9660,5570,9660z M5534,9657c3,4,6-2,5-13c0-11-3-14-6-6C5530,9645,5531,9654,5534,9657z M1248,9652c9,9,12,7,12-12
		s-3-21-12-12S1239,9643,1248,9652z M6015,9650c8,0,15-4,15-10c0-5-7-10-15-10s-15,5-15,10C6000,9646,6007,9650,6015,9650z
		 M4575,9630c16,0,30-22,23-39c-1-5-11,2-21,15C4561,9627,4561,9630,4575,9630z M6221,9619c8,0,42-19,73-44c32-25,55-45,51-45
		c-5,0,0-9,10-20c16-18,16-20,2-20c-10,0-17,7-17,15s-11,17-25,21c-14,3-25,13-25,20c0,8-11,19-25,24s-25,16-25,24s-8,17-18,19
		C6209,9617,6208,9618,6221,9619z M4688,9620c12,0,26-19,19-26c-2-2-10,2-17,11C4682,9614,4682,9620,4688,9620z M5632,9591l4,24
		l14-28c9-18,24-30,42-34c20-4,28-11,28-27c0-12,5-27,12-34s8-12,2-12c-5,1-31,20-57,43C5639,9557,5629,9571,5632,9591z M4445,9601
		c3-5,1-12-5-16c-5-3-10,1-10,9C4430,9612,4436,9615,4445,9601z M4255,9600c9,0,15-5,13-11s-8-10-13-10s-11,4-13,10
		S4246,9600,4255,9600z M5740,9580c0-5-6-10-14-10s-23-3-33-6c-16-6-16-5,2,9C5718,9592,5740,9595,5740,9580z M4334,9590
		c21-9,36-25,36-40c0-32-27-23-32,10C4335,9577,4334,9590,4334,9590z M1261,9589c2-1,12-3,21-6c10-2,18-9,18-14c0-14-16-11-30,6
		C1263,9583,1259,9589,1261,9589z M5978,9568c19-19,14-29-8-16c-11,7-20,16-20,20C5950,9584,5964,9582,5978,9568z M6824,9567
		c3,4,6-2,5-13c0-11-3-14-6-6C6820,9555,6821,9564,6824,9567z M4416,9570c2,0,4-4,4-10c0-5-5-10-11-10c-5,0-7,5-4,10
		C4408,9566,4413,9570,4416,9570z M4844,9560c3,0,8-4,11-10c3-5,1-10-4-10c-6,0-11,5-11,10C4840,9556,4842,9560,4844,9560z
		 M1332,9555c3,3,11-1,18-10s11-18,8-20c-3-3-11,1-18,10S1329,9553,1332,9555z M4552,9516c3,15,4,16,16,1c9-11,10-17,2-22
		c-6-4-14-5-17-2C4551,9496,4550,9506,4552,9516z M4477,9530c13,0,23-4,23-10c0-13-11-13-30,0C4458,9528,4459,9530,4477,9530z
		 M5754,9477c3,4,6-2,5-13c0-11-3-14-6-6C5750,9465,5751,9474,5754,9477z M5933,9450c6,0,0-11-13-25s-25-25-27-25s4,11,13,25
		S5927,9450,5933,9450z M1484,9450c3,0,8-4,11-10c3-5,1-10-4-10c-6,0-11,5-11,10C1480,9446,1482,9450,1484,9450z M4829,9400
		c27,0,36-19,18-37s-37-9-37,18C4810,9393,4817,9400,4829,9400z M6670,9390c19,0,21-3,12-12s-15-9-24,0S6651,9390,6670,9390z
		 M5814,9390c3,0,8-4,11-10c3-5,1-10-4-10c-6,0-11,5-11,10C5810,9386,5812,9390,5814,9390z M5940,9370c0-5-5-10-10-10
		c-6,0-10-7-10-15s-4-15-9-15c-17,0-23,20-11,35C5914,9382,5940,9385,5940,9370z M5985,9340c9-15-3-30-20-24c-10,4-12,0-8-17
		c4-15,3-20-5-15c-7,4-12,16-12,26C5940,9332,5975,9356,5985,9340z M2666,9309c11,0,14-3,6-6c-7-3-16-2-19,1
		C2649,9307,2655,9310,2666,9309z M6000,9300c19,0,21-3,12-12s-15-9-24,0S5981,9300,6000,9300z M7050,9251c11-21,4-51-12-51
		c-6,0-8,6-5,14s-1,20-9,26c-8,7-14,16-14,21C7010,9278,7039,9270,7050,9251z M6814,9263c9,4,16,1,16-5s7-19,16-29c20-22,9-46-12-28
		c-7,6-11,16-8,21s-2,15-11,22C6799,9256,6799,9257,6814,9263z M6714,9241c3-4,20-12,38-15l33-7l-30-13c-25-11-33-11-48,2
		c-9,8-17,12-17,7c0-4-7-2-15,5s-12,16-9,21C6673,9253,6707,9253,6714,9241z M6878,9194c6,3,14,1,17-5c10-15-3-25-16-12
		C6872,9184,6872,9190,6878,9194z M2834,9170c3,0,8-4,11-10c3-5,1-10-4-10c-6,0-11,5-11,10C2830,9166,2832,9170,2834,9170z
		 M3060,8960c5,0,10-4,10-10c0-5-5-10-10-10c-6,0-10,5-10,10C3050,8956,3054,8960,3060,8960z M1256,8960c8,0,12-4,9-10
		c-3-5-10-10-16-10c-5,0-9,5-9,10C1240,8956,1247,8960,1256,8960z M7603,8950c23,0,34-29,16-41c-24-15-37-10-35,16
		C7585,8942,7591,8950,7603,8950z M3170,8945c5,3,10,2,10-4c0-5-5-13-10-16c-6-3-10-2-10,4C3160,8934,3164,8942,3170,8945z
		 M7713,8919c20-7,27-12,27-20c0-15-17-10-24,6C7713,8913,7712,8920,7713,8919z M7664,8894c4-9,4-19,2-22c-10-9-36,8-36,23
		C7630,8915,7656,8914,7664,8894z M1329,8840c12,0,25-20,18-27s-27,6-27,18C1320,8836,1324,8840,1329,8840z M1474,8793
		c15,6,26-1,26-15c0-11-27-10-34,1C1463,8784,1466,8790,1474,8793z M1372,8790c6,0,8-3,5-7c-4-4,6-12,23-19c16-7,30-19,30-27
		s7-20,15-27c17-14,20-30,5-30c-16,0-80,61-80,77c0,7-5,13-11,13c-5,0-7,5-4,10C1358,8786,1366,8790,1372,8790z M3250,8750
		c5,0,10-5,10-11c0-5-5-7-10-4c-6,3-10,8-10,11C3240,8748,3244,8750,3250,8750z M7813,8654c12,16,15,15,35-12c12-15,43-44,67-62
		c25-19,45-37,45-42c0-12-38-10-45,3c-4,6-13,8-21,5s-14-1-14,5s-6,9-14,6c-15-6-26,20-26,61c0,13-6,22-15,22s-15-9-16-22v-23
		l-11,22c-6,13-19,25-29,28c-11,4-19,11-19,16c0,14,11,11,32-8C7799,8638,7801,8638,7813,8654z M1460,8650c19,0,21-3,12-12
		s-15-9-24,0S1441,8650,1460,8650z M7912,8500c6,0,6-6-2-15c-14-17-26-13-15,4C7898,8495,7906,8500,7912,8500z M7908,8460
		c12,0,26-19,19-26c-2-2-10,2-17,11C7902,8454,7902,8460,7908,8460z M8090,8380c5,0,10-4,10-10c0-5-5-10-10-10c-6,0-10,5-10,10
		C8080,8376,8084,8380,8090,8380z M644,8137c3,4,6-2,5-13c0-11-3-14-6-6C640,8125,641,8134,644,8137z M8551,8010c5,0,7-4,4-10
		c-3-5-8-10-11-10c-2,0-4,5-4,10C8540,8006,8545,8010,8551,8010z M8615,7950c27-28,27-30,8-30c-17,0-53,37-53,55
		C8570,7988,8589,7978,8615,7950z M8688,7886c13-14,20-30,16-40c-6-16-24-22-24-8c0,5-9,18-21,30c-11,12-17,27-14,32
		C8654,7915,8663,7912,8688,7886z M8830,7680c5,0,10-4,10-10c0-5-5-10-10-10c-6,0-10,5-10,10C8820,7676,8824,7680,8830,7680z
		 M970,7630c5,0,10-4,10-10c0-5-5-10-10-10c-6,0-10,5-10,10C960,7626,964,7630,970,7630z M9393,6866c1,1,9-6,18-15
		c23-22,42-61,34-69c-12-13-40,16-47,49C9395,6850,9392,6865,9393,6866z M9515,6780c3-5,24-9,46-8c21,1,42-2,46-5c3-4-1-7-10-7
		s-17-10-19-22c-4-28-30-35-51-14c-9,9-22,13-30,10c-19-7-31,24-16,42C9495,6792,9506,6794,9515,6780z M9510,6700c5,0,10-4,10-10
		c0-5-5-10-10-10c-6,0-10,5-10,10C9500,6696,9504,6700,9510,6700z M9652,6671c25-25,23-38-2-16c-26,24-39,11-15-15
		c10-11,14-20,10-20c-5,0-4-5,3-12s8-17,1-30c-12-22-34-25-25-3c3,8,1,15-5,15s-8,4-5,9c4,5,2,21-4,36c-8,20-7,30,4,41
		C9632,6693,9631,6693,9652,6671z M9700,6610c5,0,10-5,10-11c0-5-5-7-10-4c-6,3-10,8-10,11C9690,6608,9694,6610,9700,6610z
		 M9694,6570c3,0,8-4,11-10c3-5,1-10-4-10c-6,0-11,5-11,10C9690,6566,9692,6570,9694,6570z M9874,6480c3,0,8-4,11-10c3-5,1-10-4-10
		c-6,0-11,5-11,10C9870,6476,9872,6480,9874,6480z M9863,6443c11-10,8-43-3-43c-6,0-10,11-10,25C9850,6451,9852,6454,9863,6443z
		 M10090,6160c5,0,10-4,10-10c0-5-5-10-10-10c-6,0-10,5-10,10C10080,6156,10084,6160,10090,6160z M514,5827c3,4,6-2,5-13
		c0-11-3-14-6-6C510,5815,511,5824,514,5827z M10301,5750c9,0,22-7,29-15s20-14,28-13c22,4,27-28,6-36c-19-7-44,10-44,30
		c0,7-8,18-18,23C10287,5748,10287,5749,10301,5750z M10550,5601c15-29,13-33-13-25c-29,9-29,8-21,28
		C10524,5625,10537,5624,10550,5601z M575,5600c8-14-3-30-21-30c-16,0-16,2-8,24C553,5612,566,5615,575,5600z M10489,5580
		c10,0,22-42,15-50c-8-7-34,31-28,41C10479,5576,10485,5580,10489,5580z M1028,5552c9,9,12,7,12-12s-3-21-12-12S1019,5543,1028,5552
		z M1191,5450c5,0,7-4,4-10c-3-5-8-10-11-10c-2,0-4,5-4,10C1180,5446,1185,5450,1191,5450z M1540,5256c0-8-7-16-15-20
		c-13-4-14-2-5,14C1533,5273,1540,5276,1540,5256z M1531,5207c6,15,39,3,39-14c0-9,12-26,26-38l26-22l-26-5c-19-4-26-1-26,10
		c0,9-9,26-21,38S1529,5202,1531,5207z M1440,5150c5,0,10-4,10-10c0-5-5-10-10-10c-6,0-10,5-10,10C1430,5146,1434,5150,1440,5150z
		 M1490,5030c5,0,10-7,10-15s-5-15-10-15c-6,0-10,7-10,15S1484,5030,1490,5030z M11264,4887c3,4,6-2,5-13c0-11-3-14-6-6
		C11260,4875,11261,4884,11264,4887z M1858,4792c9,9,13,7,18-6c8-22-3-33-18-18C1849,4777,1849,4783,1858,4792z M8815,4590
		c5,0,45-61,45-69c0-5,6-12,12-14c10-4,10-8,0-15c-11-7-6-14,21-31c19-11,41-21,48-21c15-1,49-24,49-34c0-13-21-5-72,25
		c-76,46-109,84-106,126C8813,4575,8815,4590,8815,4590z M2721,4385c7,7,19-5,19-19c0-6-5-5-12,2C2722,4374,2719,4382,2721,4385z
		 M1340,4370c0-6,12-22,27-35c16-13,25-26,22-30c-4-3-19,5-34,19c-16,15-35,26-43,26c-12,0-12,3-2,15C1324,4382,1340,4385,1340,4370
		z M10383,4323c4-3,7-10,7-14c0-11-29-19-35-10C10349,4310,10375,4332,10383,4323z M2758,4300c0-16-3-30-8-30c-12,0-20,28-14,45
		C2746,4340,2757,4332,2758,4300z M2805,4210c9,8,15,8,15,2c0-12-19-26-26-19C2792,4195,2796,4203,2805,4210z M9006,4176
		c8-14,27-26,42-28c19-2,28-10,30-24c2-12,16-34,33-49c16-16,29-36,29-45s9-25,20-35s20-30,20-44s7-39,15-54c8-17,12-40,8-57
		c-6-33-23-41-24-12c0,10-3,12-6,5c-9-24-33-14-33,13c0,23-3,25-28,20c-23-6-30-2-45,24c-11,17-27,30-38,30s-22,8-26,18
		c-3,9-13,25-21,34c-8,10-12,26-9,37c2,11,1,41-4,68c-5,26-7,65-3,86C8973,4206,8983,4210,9006,4176z M1509,4150c10,0,21-11,21-22
		c0-14-18-9-24,7C1503,4143,1504,4150,1509,4150z M1570,4080c5,0,10-4,10-10c0-5-5-10-10-10c-6,0-10,5-10,10
		C1560,4076,1564,4080,1570,4080z M11925,4040c46-41,55-51,55-61c0-8-4-8-13-1c-6,6-16,10-21,10c-4,1-17,14-27,31
		C11901,4049,11904,4059,11925,4040z M2332,4019c21-17,38-38,38-46c0-10,6-12,20-8c15,5,22,0,29-17c12-28,68-88,83-88c5,0,7-7,4-15
		c-4-12,1-15,22-13s27-1,25-16c-1-10,7-28,18-39c10-12,19-31,19-43s9-33,20-47c27-34,25-47-6-47c-33,0-92,59-122,122
		c-12,26-29,51-38,56c-11,6-15,18-12,35c3,15,1,24-4,21c-13-8-38,16-38,37c0,11-7,19-15,19s-22,17-30,37c-9,21-26,48-37,60
		C2279,4058,2288,4055,2332,4019z M1649,3930c10,0,24-30,17-37c-8-8-26,8-26,23C1640,3924,1644,3930,1649,3930z M9249,3814
		c25-29,23-39-8-29c-14,4-21,15-21,31C9220,3846,9221,3846,9249,3814z M9310,3745c14-16,10-18-14-9c-9,3-16,10-16,15
		C9280,3765,9296,3762,9310,3745z M9354,3687c3,4,6-2,5-13c0-11-3-14-6-6C9350,3675,9351,3684,9354,3687z M11860,3610
		c5,0,10-4,10-10c0-5-5-10-10-10c-6,0-10,5-10,10C11850,3606,11854,3610,11860,3610z M2728,3598c16-16,15-48-2-48c-20,0-39,27-32,45
		S2712,3614,2728,3598z M9394,3597c3,4,6-2,5-13c0-11-3-14-6-6C9390,3585,9391,3594,9394,3597z M11837,3532l21-29l-24,5
		c-17,3-24,11-24,28C11810,3566,11812,3566,11837,3532z M9454,3540c8,0,18-4,21-10c3-5-3-10-14-10c-12,0-21,5-21,10
		C9440,3536,9446,3540,9454,3540z M9613,3373c12-11,8-22-12-32c-16-9-17-7-13,14C9592,3380,9601,3386,9613,3373z M8450,3310
		c5,0,10-4,10-10c0-5-5-10-10-10c-6,0-10,5-10,10C8440,3306,8444,3310,8450,3310z M8536,3300c9,0,14-5,12-12c-6-18-28-21-28-4
		C8520,3293,8527,3300,8536,3300z M8478,3290c5,0,15-7,22-15s8-15,2-15c-5,0-15,7-22,15S8472,3290,8478,3290z M8571,3270
		c5,0,7-4,4-10c-3-5-8-10-11-10c-2,0-4,5-4,10C8560,3266,8565,3270,8571,3270z M9825,3207c12-9,14-16,7-21c-6-3-16,3-22,14
		C9797,3224,9800,3225,9825,3207z M9812,3162c16-9,28-20,28-25s-14,1-30,13c-17,12-30,23-30,26C9780,3182,9782,3181,9812,3162z
		 M9866,3170c8,0,12-4,9-10c-3-5-10-10-16-10c-5,0-9,5-9,10C9850,3166,9857,3170,9866,3170z M9960,3128c14,0,19-2,12-5
		c-6-2-18-2-25,0C9941,3126,9946,3128,9960,3128z M8485,3070c17-7,15-9-12-9c-17-1-35,4-38,9C8428,3082,8457,3082,8485,3070z
		 M2436,3070c2,0,4-4,4-10c0-5-5-10-11-10c-5,0-7,5-4,10C2428,3066,2433,3070,2436,3070z M2169,3040c12,0,21-4,21-10c0-5-6-10-14-10
		s-18,5-21,10C2152,3036,2158,3040,2169,3040z M8963,3013c12-12,7-22-8-17c-8,4-15,10-15,15C8940,3022,8954,3023,8963,3013z
		 M2403,2921c15-26,15-28-4-26c-19,1-38,20-39,36C2360,2952,2389,2944,2403,2921z M2239,2940c12,0,44-50,37-57s-46,35-46,49
		C2230,2936,2234,2940,2239,2940z M5137,2894c3-8,1-20-6-27c-8-8-11-4-11,16C5120,2913,5127,2918,5137,2894z M5025,2880
		c13,11,15,8,15-14c0-16-5-26-15-26c-8,0-15,6-15,14C5010,2861,5017,2873,5025,2880z M5070,2870c5,0,10-7,10-15s-5-15-10-15
		c-6,0-10,7-10,15S5064,2870,5070,2870z M2604,2804c3-9,1-23-4-32c-9-14-10-13-5,6c5,18,2,22-15,22c-12,0-18,5-15,10
		C2574,2825,2597,2822,2604,2804z M3019,2756c11-13,11-20,3-28s-13-7-18,5C2994,2760,3004,2774,3019,2756z M2866,2709c3-6,24-9,45-7
		c31,3,39,0,39-13c0-9-7-22-15-29c-20-16-19-30,1-30c9,0,18-9,21-20s12-20,20-20c10,0,12-6,8-19c-7-24,11-37,31-21c11,10,11,16,3,26
		c-12,15-5,44,11,44c5,0,10-20,10-44c0-37,4-45,22-50c22-6,22-7,5-20s-23-56-10-70c5-4,8-11,9-14c1-10,23-64,36-89c8-17,8-26-2-38
		c-17-20-36-5-43,35c-6,29-35,70-49,70c-15,0-4-65,13-77c11-8,15-21,12-38c-3-14,0-39,7-55c7-17,10-33,6-37c-9-9-47,83-41,99
		c3,8-3,23-15,33c-11,10-20,26-20,36s-4,20-9,23c-7,5-21,76-15,76c2,0,14-4,28-10c18-6,27-6,32,3c4,7,4,9-1,5c-12-11-35,11-35,34
		c0,13-5,18-14,15c-17-7-41,26-50,69c-4,17-15,40-25,50c-10,11-20,36-24,57C2851,2721,2854,2729,2866,2709z M3020,2700
		c5,0,10-7,10-15s-5-15-10-15c-6,0-10,7-10,15S3014,2700,3020,2700z M3109,2680c6,0,13-4,16-10c3-5-1-10-9-10c-9,0-16,5-16,10
		C3100,2676,3104,2680,3109,2680z M2819,2660c12,0,25-20,18-27s-27,6-27,18C2810,2656,2814,2660,2819,2660z M2983,2644
		c8-8-1-24-14-24c-5,0-9,7-9,15C2960,2650,2972,2655,2983,2644z M9418,2630c18,0,31-26,25-48c-3-12-10-22-15-22c-6,0-8,10-5,22
		c4,12,1,28-5,35C9412,2625,9411,2630,9418,2630z M2395,2611c3-5,1-12-5-16c-5-3-10,1-10,9C2380,2622,2386,2625,2395,2611z
		 M2354,2500c13,0,36-28,36-44c0-13-16-4-33,19C2342,2496,2341,2500,2354,2500z M2456,2470c7,0,17-30,12-36c-3-3-8,4-11,16
		C2454,2461,2454,2470,2456,2470z M10474,2450c3,0,8-4,11-10c3-5,1-10-4-10c-6,0-11,5-11,10C10470,2446,10472,2450,10474,2450z
		 M4820,2430c5,0,10-4,10-10c0-5-5-10-10-10c-6,0-10,5-10,10C4810,2426,4814,2430,4820,2430z M4939,2418c8,3,12-1,9-9
		c-2-7-10-15-17-17c-8-3-12,1-9,9C4924,2408,4932,2416,4939,2418z M4975,2391c3-5,1-12-5-16c-5-3-10,1-10,9
		C4960,2402,4966,2405,4975,2391z M10550,2364c14-35,13-49-4-64c-8-6-12-18-9-26s-1-14-11-14c-9,0-16,4-16,9c0,21,13,41,26,41
		c16,0,19,16,4,25c-6,4-24,7-40,7c-17,1-33,5-36,9c-3,5,2,6,10,3c11-4,16,0,16,15C10490,2401,10538,2398,10550,2364z M4980,2360
		c5,0,10-9,10-21c0-11-5-17-10-14c-6,3-10,13-10,21S4974,2360,4980,2360z M3384,2343c11-11,6-23-9-23c-8,0-15,4-15,9
		C3360,2342,3376,2351,3384,2343z M10934,2320c9,0,16-4,16-10c0-5-4-10-9-10c-6,0-13,5-16,10C10922,2316,10926,2320,10934,2320z
		 M10623,2302c23-25,21-42-3-42c-16,0-20,7-20,30C10600,2325,10602,2326,10623,2302z M3052,2272c5,24,11,15,21-29c6-25-10-32-19-9
		C3051,2242,3050,2259,3052,2272z M3160,2280c5,0,10-4,10-10c0-5-5-10-10-10c-6,0-10,5-10,10C3150,2276,3154,2280,3160,2280z
		 M2472,2252c3,30,4,31,14,13c29-51,24-97-5-61C2474,2212,2470,2234,2472,2252z M10613,2210c6-24,27-27,27-3c0,14,3,14,12,5
		c15-15-4-32-38-32c-22,0-39,24-28,41C10595,2236,10607,2231,10613,2210z M3172,2211c4,11,6,11,12,0c9-13,0-28-10-18
		C3171,2196,3170,2204,3172,2211z M11064,2162c3-5,25-19,50-32c35-18,46-29,46-47c0-21,3-23,22-17c21,6,21,5,9-10
		c-21-25-56-17-56,14c0,18-5,24-18,22c-9-2-17,2-17,8s-5,8-10,5c-12-7-72,49-63,59C11036,2173,11058,2171,11064,2162z M10784,2130
		c8,0,18-4,21-10c3-5-3-10-14-10c-12,0-21,5-21,10C10770,2126,10776,2130,10784,2130z M3058,2065c17-36,15-45-8-45c-13,0-21,7-22,20
		c0,11-1,25-2,32C3024,2095,3047,2090,3058,2065z M10510,2070c15,0,12-26-5-40c-15-12-35-6-35,11c0,5,7,9,15,9s15,5,15,10
		C10500,2066,10504,2070,10510,2070z M11006,2060c2,0,4-4,4-10c0-5-5-10-11-10c-5,0-7,5-4,10C10998,2056,11003,2060,11006,2060z
		 M10620,2060c5,0,10-4,10-10c0-5-5-10-10-10c-6,0-10,5-10,10C10610,2056,10614,2060,10620,2060z M5150,2060c5,0,10-4,10-10
		c0-5-5-10-10-10c-6,0-10,5-10,10C5140,2056,5144,2060,5150,2060z M11218,2036c7,13,10,13,20,1c10-11,9-17-2-26c-10-8-16-9-21-2
		C11212,2015,11213,2027,11218,2036z M10864,2035c11-8,16-18,12-22c-3-4-16,3-29,15C10823,2053,10835,2057,10864,2035z M10537,2043
		c6,4,16,0,23-8c17-21,8-28-15-11C10534,2032,10531,2039,10537,2043z M10946,2025c17-13,17-14,2-15c-9,0-20,5-23,11
		C10914,2038,10925,2041,10946,2025z M11116,1989l12,23l11-21c7-12,9-26,6-31c-7-12-32-13-38-2C11105,1962,11109,1976,11116,1989z
		 M11285,2000c8,0,15-2,15-4s-7-9-15-16c-12-10-15-10-15,4C11270,1993,11277,2000,11285,2000z M5850,2000c5,0,10-5,10-11
		c0-5-5-7-10-4c-6,3-10,8-10,11C5840,1998,5844,2000,5850,2000z M3105,1980c10-11,16-23,12-26c-8-8-60,18-65,34
		C3046,2008,3085,2002,3105,1980z M10634,1971c13-15,14-20,4-24s-10-8,2-16c8-5,11-13,7-17c-10-11-47,26-47,47
		C10600,1988,10615,1992,10634,1971z M11056,1956c10-8,16-17,13-20s-14,3-24,14C11024,1973,11028,1976,11056,1956z M10971,1970
		c14,0,31-30,25-45c-9-25-23-17-28,15C10965,1957,10967,1970,10971,1970z M11354,1947c3,4,6-2,5-13c0-11-3-14-6-6
		C11350,1935,11351,1944,11354,1947z M11120,1920c8-5,12-12,8-15c-10-10-49,5-43,16C11093,1932,11101,1932,11120,1920z M11464,1892
		c15-18,15-20-4-37c-20-18-21-18-34,0c-10,15-11,23-2,37C11438,1915,11443,1914,11464,1892z M5923,1910c10,0,39-41,34-46
		c-12-12-37,6-37,26C5920,1901,5922,1910,5923,1910z M11069,1890c5,0,13-4,16-10c3-5,2-10-4-10c-5,0-13,5-16,10
		C11062,1886,11063,1890,11069,1890z M10626,1876c10-8,16-17,12-21c-7-7-48,16-48,27C10590,1894,10604,1891,10626,1876z M11310,1880
		c5,0,10-5,10-11c0-5-5-7-10-4c-6,3-10,8-10,11C11300,1878,11304,1880,11310,1880z M11494,1870c3,0,8-4,11-10c3-5,1-10-4-10
		c-6,0-11,5-11,10C11490,1866,11492,1870,11494,1870z M11130,1860c5,0,10-4,10-10c0-5-5-10-10-10c-6,0-10,5-10,10
		C11120,1856,11124,1860,11130,1860z M11173,1823c3-5-3-15-14-22c-18-11-20-10-17,5C11145,1825,11165,1836,11173,1823z M11400,1820
		c5,0,10-7,10-16c0-8-5-12-10-9c-6,3-10,10-10,16C11390,1816,11394,1820,11400,1820z M11075,1795c16-14,36-25,42-25c7,0,13-4,13-10
		c0-5-16-10-35-10c-24,0-35,5-35,15c0,8-9,19-20,25s-18,15-15,21C11034,1824,11042,1822,11075,1795z M11453,1779c9-6,15-14,12-20
		c-10-15-23-10-35,11C11418,1792,11426,1795,11453,1779z M6018,1778c20-20,14-38-12-38c-19,0-24,5-22,25
		C5985,1792,5999,1797,6018,1778z M5892,1789c19-5,28-13,28-25c0-8,10-14,22-14c17,0,19-3,10-12c-13-13-36,2-53,34
		C5894,1782,5891,1790,5892,1789z M10791,1761l24-20l-23,6c-12,3-25,10-28,15C10752,1781,10768,1780,10791,1761z M11540,1740
		c17-24,20-34,11-43s-14-8-21,3c-5,8-15,15-22,15s-12,9-10,20C11504,1771,11517,1772,11540,1740z M11364,1734c25-25,10-33-27-15
		c-27,12-31,17-18,23C11343,1752,11347,1751,11364,1734z M11444,1727c3,4,6-2,5-13c0-11-3-14-6-6C11440,1715,11441,1724,11444,1727z
		 M11081,1730c5,0,7-4,4-10c-3-5-8-10-11-10c-2,0-4,5-4,10C11070,1726,11075,1730,11081,1730z M10997,1707c5,15,12,22,16,17
		c10-17-25-85-43-82c-23,5-25,38-2,38C10981,1680,10992,1690,10997,1707z M11296,1698c7,10,13,12,18,4c3-6-3-16-14-22
		c-18-10-19-14-8-27c11-14,10-15-10-9c-13,5-22,3-22-3s-5-11-11-11c-19,0-5,45,16,49C11276,1681,11290,1689,11296,1698z M5967,1695
		c8-22-6-33-17-15c-6,8-10,18-10,23C5940,1716,5961,1710,5967,1695z M11605,1700c10,0,11-5,2-25c-18-38-36-31-21,9
		C11589,1693,11598,1700,11605,1700z M11481,1700c9-1,61-51,57-55c-2-3-17,9-33,25C11489,1687,11478,1700,11481,1700z M6054,1700
		c15,0,15-52,0-57c-12-4-26,35-18,49C6039,1696,6047,1700,6054,1700z M11430,1685c5,3,13-1,16-10c9-22-1-29-15-11
		C11423,1674,11422,1680,11430,1685z M11190,1670c5,0,10-4,10-10c0-5-5-10-10-10c-6,0-10,5-10,10C11180,1666,11184,1670,11190,1670z
		 M11750,1639c-8-15-8-24,0-34s6-17-12-29c-30-21-38-20-38,4c0,17,4,19,26,14c19-5,25-4,20,5c-4,6-13,11-20,11s-21,9-32,21
		c-18,20-18,20,8,14c15-4,29-2,32,4C11747,1670,11761,1661,11750,1639z M11095,1650c3-5,1-18-4-27c-9-16-10-14-11,10
		C11080,1661,11085,1667,11095,1650z M11561,1635c7,7,19-5,19-19c0-6-5-5-12,2C11562,1624,11559,1632,11561,1635z M11440,1624
		c0-8-5-12-10-9c-6,4-8,11-5,16C11434,1645,11440,1642,11440,1624z M6010,1635c5,3,10,0,10-8s7-20,15-27c9-7,13-15,10-18s0-11,7-19
		c9-11,8-18-4-29c-14-14-16-11-22,27c-4,24-11,48-17,55C6002,1624,6002,1630,6010,1635z M11016,1630c2,0,4-4,4-10c0-5-5-10-11-10
		c-5,0-7,5-4,10C11008,1626,11013,1630,11016,1630z M11279,1620c6,0,13-4,16-10c3-5-1-10-9-10c-9,0-16,5-16,10
		C11270,1616,11274,1620,11279,1620z M11213,1610c3,0,18-11,33-25s23-25,17-25c-5,0-20,11-33,25S11209,1610,11213,1610z M11060,1610
		c5,0,10-4,10-10c0-5-5-10-10-10c-6,0-10,5-10,10C11050,1606,11054,1610,11060,1610z M11527,1584c8,15,11,15,27-3c17-19,18-21,2-27
		c-10-4-22-2-28,4S11521,1574,11527,1584z M11378,1578c13-13,16-38,4-38c-8,0-42,37-42,45C11340,1595,11366,1590,11378,1578z
		 M6843,1537c16,16,17,16,17-5c0-27,28-41,41-21c6,10,9,10,9,2c0-7,7-13,15-13s15,4,15,9s19,7,42,4c70-7,88-13,88-27c0-7,8-20,18-29
		c14-13,21-14,30-5c8,8,12,8,12,1c0-6-7-13-15-17c-22-8-18-26,5-26c13,0,20-7,20-19c0-10,7-21,15-25c8-3,15-12,15-20c0-9,9-20,19-26
		c11-5,25-26,31-45c8-24,18-35,30-35s17-5,14-13c-2-7,9-26,26-42c16-16,30-39,30-52c0-14,6-23,15-23s15-9,15-25c0-15,6-25,14-25
		c20,0,27-13,15-30c-8-12-14-10-34,15c-14,17-25,35-25,42s-11,24-25,39c-28,30-33,15-10-30c18-33,13-45-10-26c-27,22-38,51-26,63
		c27,27-7,107-46,107c-6,0-14,6-16,13c-4,9-8,8-16-3c-10-13-12-13-20,0c-6,8-13,11-17,8c-10-10,4-40,15-33c5,3,12,1,15-4
		s-2-12-11-15c-12-5-23,1-36,18c-9,13-31,27-47,31c-17,4-30,10-30,15c0,17,31,31,57,26c25-6,28-4,30,23c2,34-14,51-28,30
		c-7-11-9-10-9,4c0,11-8,17-21,17c-18,0-19-3-10-14c10-12,8-19-8-35c-12-12-26-21-31-21c-6,0-10-9-10-20c0-23-10-26-28-8
		c-17,17-15,31,3,24c17-6,22,29,5,39c-8,5-7,11,0,20c9,11,7,20-7,39c-21,30-26,31-43,11c-18-22-40-18-40,6c0,11,4,18,10,14
		c18-11,55,6,67,32c17,36,4,51-18,22c-14-19-20-22-30-11c-18,17-29,15-29-4c0-11-5-14-16-10c-9,3-18,6-20,6s-4,5-4,12
		c0,6-8,20-17,30C6827,1519,6827,1522,6843,1537z M11710,1540c5,0,10-4,10-10c0-5-5-10-10-10c-6,0-10,5-10,10
		C11700,1536,11704,1540,11710,1540z M11618,1524c11-8,36-13,54-12c28,3,34-1,36-19c2-14,10-23,21-23c17,0,61-39,61-53
		c0-17-39-5-53,16c-14,22-111,77-135,77c-6,0-13,4-17,9C11575,1536,11596,1539,11618,1524z M6130,1531c0-6-6-11-14-11s-16-6-19-12
		c-4-10-7-10-18-1c-7,7-11,15-8,17C6082,1536,6130,1541,6130,1531z M11861,1530c5,0,7-4,4-10c-3-5-8-10-11-10c-2,0-4,5-4,10
		C11850,1526,11855,1530,11861,1530z M11754,1510c8,0,18-4,21-10c3-5-1-10-9-10s-18,5-21,10C11742,1506,11746,1510,11754,1510z
		 M6204,1507c3,4,6-2,5-13c0-11-3-14-6-6C6200,1495,6201,1504,6204,1507z M11818,1468c9,3,13-2,10-12c-3-19-23-22-23-4
		C11805,1458,11811,1465,11818,1468z M11845,1439c0,0,10-4,22-9c16-6,20-15,16-30c-8-31-38-21-38,13
		C11844,1428,11844,1440,11845,1439z M6824,1431c4-5,3-16,0-25c-4-12,0-16,15-16c12,0,21-3,21-7c0-5-20-8-45-8s-41,2-35,3
		c5,2,10,12,10,23c0,10-5,19-10,19c-6,0-10,5-10,10C6770,1442,6817,1443,6824,1431z M6843,1336c32-1,65-5,73-9s20-5,27-2
		c6,4,2-2-11-13c-12-11-22-25-22-30s10-17,22-26l23-17l-26,5c-21,5-25,2-25-17c1-13-5-22-14-22c-8,0-19-6-23-12c-4-7-11-13-15-13
		c-10,0-8,42,3,60c6,10,3,12-13,8c-17-5-22-2-22,14c0,10,4,17,8,14c5-3,6,8,4,24c-3,20-11,30-26,33C6795,1335,6811,1336,6843,1336z
		 M6756,1330c8,0,12-5,9-10c-6-9-25-5-25,6C6740,1328,6747,1330,6756,1330z M7290,1310c5,0,10-7,10-15s-5-15-10-15c-6,0-10,7-10,15
		S7284,1310,7290,1310z M7352,1230c17-17,37-29,43-26c7,2,10-6,7-25c-3-24-1-28,12-23s16,0,16-25c0-21-5-31-15-31c-8,0-15,7-15,15
		c0,18-12,19-27,4c-8-8-11-7-10,2c2,58-4,87-21,92c-11,2-21,14-25,26C7310,1267,7314,1266,7352,1230z M6815,1210c-3-5-14-10-23-10
		c-15,0-15,2-2,10C6810,1223,6823,1223,6815,1210z M7047,1200c13,0,38-29,31-35c-3-3-13,4-23,15S7042,1200,7047,1200z M6950,1190
		c5,0,10-4,10-10c0-5-5-10-10-10c-6,0-10,5-10,10C6940,1186,6944,1190,6950,1190z M7160,1170c5,0,10-4,10-10c0-5-5-10-10-10
		c-6,0-10,5-10,10C7150,1166,7154,1170,7160,1170z M7052,1148c0-7,2-17,2-23c1-5,5-15,9-21c9-15-18-38-33-29c-9,5-9,10-1,18
		c16,16,13,30-4,23c-18-7-20,15-3,32C7037,1163,7050,1163,7052,1148z M6895,1081c3-6-3-15-14-20c-16-9-18-8-14,9
		C6873,1091,6885,1096,6895,1081z M7150,1080c5,0,10-4,10-10c0-5-5-10-10-10c-6,0-10,5-10,10C7140,1076,7144,1080,7150,1080z
		 M7465,1059c19-8,19-8-2-15c-28-8-20-24,13-24c25,0,34-25,12-32c-10-4-10-13-1-43c7-22,10-41,7-44c-6-7-94,91-94,105
		c0,7,7,14,15,18c8,3,12,12,9,19C7417,1061,7439,1070,7465,1059z M7200,1070c5,0,10-4,10-10c0-5-5-10-10-10c-6,0-10,5-10,10
		C7190,1066,7194,1070,7200,1070z M7084,1070c7,0,46-61,46-72c0-16-37,30-44,55C7084,1062,7083,1070,7084,1070z M7239,1053
		c11,11,21-3,21-34c0-15,4-29,10-31s6-9,0-18c-12-19-20-10-30,37C7235,1028,7234,1048,7239,1053z M6960,1050c5,0,10-4,10-10
		c0-5-5-10-10-10c-6,0-10,5-10,10C6950,1046,6954,1050,6960,1050z M7515,1003c13,18,14,18,29-5c8-12,22-41,32-63c9-22,21-43,27-47
		s8-10,4-15c-9-9-76,65-77,85c0,6-7,12-15,12s-15,3-15,8C7500,982,7507,993,7515,1003z M7044,1017c3,4,6-2,5-13c0-11-3-14-6-6
		C7040,1005,7041,1014,7044,1017z M6939,998c8,3,12-1,9-9c-2-7-10-15-17-17c-8-3-12,1-9,9C6924,988,6932,996,6939,998z M7274,940
		c3,0,8-4,11-10c3-5,1-10-4-10c-6,0-11,5-11,10C7270,936,7272,940,7274,940z M7043,933c3,6,5,1,5-13s-2-19-5-12
		C7041,914,7041,926,7043,933z M6637,921c11,11,13,10,13-4c0-9,7-17,16-17c10,0,12-4,7-12c-4-7-8-19-8-27c0-17-45-49-45-32
		c0,6,7,14,15,17c18,7,20,50,2,57C6627,907,6627,910,6637,921z M7526,890c2,0,4-4,4-10c0-5-5-10-11-10c-5,0-7,5-4,10
		C7518,886,7523,890,7526,890z M6685,824c9,3,15,0,15-9c0-8-7-15-15-15s-15,4-15,9S6677,820,6685,824z M6780,700c5,0,10-7,10-16
		c0-8-5-12-10-9c-6,3-10,10-10,16C6770,696,6774,700,6780,700z M6761,645c7,7,19-5,19-19c0-6-5-5-12,2C6762,634,6759,642,6761,645z
		 M6960,640c5,0,10-5,10-11c0-5-5-7-10-4c-6,3-10,8-10,11C6950,638,6954,640,6960,640z M7026,489c11,0,14-3,6-6c-7-3-16-2-19,1
		C7009,487,7015,490,7026,489z"/>
	<path d="M9540,6760c-6,0-10-4-10-10c0-5,4-10,10-10c5,0,10,5,10,10C9550,6756,9545,6760,9540,6760z"/>
	<path d="M9106,4045c4-8,10-15,15-15c11,0,12,14,2,23C9111,4065,9101,4060,9106,4045z"/>
	<path d="M2487,3810c-5,0-2-9,8-20c21-23,35-19,15,5C2503,3803,2493,3810,2487,3810z"/>
	<path d="M2538,3764c-6-4-6-10,1-17c13-13,26-3,16,12C2552,3765,2544,3767,2538,3764z"/>
	<path d="M3010,2499c0-5,7-9,15-9c15,0,20,12,9,23C3026,2521,3010,2512,3010,2499z"/>
	<path d="M7020,1340c-6,0-10-4-10-10c0-5,4-10,10-10c5,0,10,5,10,10C7030,1336,7025,1340,7020,1340z"/>
	<path d="M6876,1314c-3-9-6-32-6-51c0-30,2-34,15-23c9,7,15,29,15,51C6900,1331,6887,1343,6876,1314z"/>
	<path d="M7424,1010c-2,0-4-4-4-10c0-5,5-10,11-10c5,0,7,5,4,10C7432,1006,7427,1010,7424,1010z"/>
	<path d="M1272,11018c4-29,38-38,38-10c0,11-6,23-13,25C1274,11043,1269,11040,1272,11018z"/>
	<path d="M910,11023c1-11,26-43,34-43c10,0,7,25-6,38S910,11034,910,11023z"/>
	<path d="M1444,10985c3-9,11-13,16-10c8,5,7,11-1,21C1445,11014,1435,11007,1444,10985z"/>
	<path d="M1954,11000c-16,0-16-2,1-20c20-22,31-20,22,5C1973,10993,1963,11000,1954,11000z"/>
	<path d="M1530,10886c0-20,19-31,32-18c6,6,7,15,4,21C1556,10905,1530,10902,1530,10886z"/>
	<path d="M1626,10860c-6,0-5-5,2-12c16-16,15-31-2-25c-11,4-12-1-7-21c10-35,38-41,43-10l4,23l11-25c6-14,18-32,27-39
		c14-12,16-11,16,5c0,10-19,38-42,61C1655,10841,1631,10860,1626,10860z"/>
	<path d="M1430,10809c0-5,7-9,15-9c15,0,20,12,9,23C1446,10831,1430,10822,1430,10809z"/>
	<path d="M1165,10780c3-6,10-10,16-10c10,0,12,33,2,44C1174,10823,1157,10792,1165,10780z"/>
	<path d="M1490,10796c0-5-8-14-17-21c-15-12-15-15,1-49c10-22,24-36,36-36c10,0,25-3,33-6c11-4,17,4,22,26c6,29,8,30,24,16
		c19-17,41-21,41-8c0,5-13,20-28,35c-21,20-34,26-48,20c-16-6-17-4-7,9c7,8,10,18,7,21C1545,10812,1490,10806,1490,10796z"/>
	<path d="M1338,10754c-10-6,15-54,29-54c23,0,24,21,1,39C1356,10750,1342,10756,1338,10754z"/>
	<path d="M1218,10739c-12,1,3-34,28-64c19-24,24-26,24-12c0,11-10,32-23,47C1235,10726,1222,10739,1218,10739z"/>
	<path d="M1767,10688c-4-10-8-9-16,2c-5,8-13,11-16,8c-4-4,2-16,13-28c13-14,22-18,27-10s11,8,21-1c11-9,14-7,14,9c0,11-6,23-13,25
		C1777,10702,1772,10701,1767,10688z"/>
	<path d="M1644,10700c-17,0-14-22,4-28c7-2,12,3,12,12S1653,10700,1644,10700z"/>
	<path d="M1956,10684c-23-9-19-29,8-42c19-9,25-8,30,4c3,8,3,21,0,29C1987,10691,1980,10693,1956,10684z"/>
	<path d="M1870,10671c0-12,20-25,27-18c3,3,2,10-2,16C1887,10683,1870,10683,1870,10671z"/>
	<path d="M1490,10666c0-16,18-31,27-22c3,3,3,12,0,21C1509,10684,1490,10685,1490,10666z"/>
	<path d="M2188,10638c-20-28-8-44,21-29c18,10,19,14,8,31C2205,10660,2205,10660,2188,10638z"/>
	<path d="M1896,10578c-9-33-8-38,8-38s31,34,21,50C1915,10607,1903,10601,1896,10578z"/>
	<path d="M1951,10530c-6,0-11-4-11-10c0-5,2-10,4-10c3,0,8,5,11,10C1958,10526,1956,10530,1951,10530z"/>
	<path d="M1980,10469c0-20,8-37,22-49c19-15,20-20,10-33c-8-9-9-18-4-21c17-11,21,37,6,66c-9,17-13,36-10,43c2,7,2,16-1,19
		C1989,10508,1980,10498,1980,10469z"/>
	<path d="M5981,10350c-6,0-13-4-16-10c-3-5-2-10,4-10s13-11,17-25c7-30,24-33,24-4c0,16,4,19,21,14c15-5,19-4,15,4c-4,6-18,11-32,11
		c-13,0-24,5-24,10C5990,10346,5986,10350,5981,10350z"/>
	<path d="M1991,10300c-6,0-11-4-11-10c0-5,2-10,4-10c3,0,8,5,11,10C1998,10296,1996,10300,1991,10300z"/>
	<path d="M6340,10250c-13-8-12-10,2-10c10,0,18-5,18-12c0-9,3-9,11-1c6,6,8,16,5,22C6367,10262,6360,10263,6340,10250z"/>
	<path d="M6149,10194c-17-10-9-22,23-33l32-11l-24,25C6168,10188,6153,10197,6149,10194z"/>
	<path d="M2060,10186c0-20,17-36,38-36c24,0,25,0,7,20C2089,10187,2060,10198,2060,10186z"/>
	<path d="M6219,10150c-14,0-11-16,6-30c16-14,18-10,9,14C6231,10143,6224,10150,6219,10150z"/>
	<path d="M4050,10141c0-12,20-25,27-18c3,3,2,10-2,16C4067,10153,4050,10153,4050,10141z"/>
	<path d="M4050,10070c-6,0-10-4-10-10c0-5,4-10,10-10c5,0,10,5,10,10C4060,10066,4055,10070,4050,10070z"/>
	<path d="M6560,10050c-6,0-10-4-10-10c0-5,4-10,10-10c5,0,10,5,10,10C6570,10046,6565,10050,6560,10050z"/>
	<path d="M6588,9990c18-17,37-30,42-30c20,0,9,26-18,42C6567,10031,6551,10023,6588,9990z"/>
	<path d="M3820,9980c-6,0-10-4-10-10c0-5,4-10,10-10c5,0,10,5,10,10C3830,9976,3825,9980,3820,9980z"/>
	<path d="M6690,9950c-6,0-10-4-10-10c0-5,4-10,10-10c5,0,10,5,10,10C6700,9946,6695,9950,6690,9950z"/>
	<path d="M5822,9920c-11-18-10-20,12-20c23,0,41,22,29,34S5835,9940,5822,9920z"/>
	<path d="M6239,9788c-6-2-11-8-11-13s5-11,11-13s11,4,11,13S6245,9790,6239,9788z"/>
	<path d="M6387,9753c-9-9,12-33,29-33s18,27,1,33C6399,9761,6394,9761,6387,9753z"/>
	<path d="M6279,9760c-5,0-9-4-9-10c0-5,7-10,16-10c8,0,12,5,9,10C6292,9756,6285,9760,6279,9760z"/>
	<path d="M6290,9715c0-13,47-45,66-45c13,0,26-4,29-10c3-5,10-10,16-10c5,0,9,5,9,10c0,6-5,10-11,10c-5,0-27,11-47,25
		C6319,9718,6290,9727,6290,9715z"/>
	<path d="M6604,9477c-3-3-4-12-1-19c3-8,6-5,6,6C6610,9475,6607,9481,6604,9477z"/>
	<path d="M7030,9355c0-14,4-25,10-25c11,0,14,33,3,43C7032,9384,7030,9381,7030,9355z"/>
	<path d="M7096,9320c-3,0-8-4-11-10c-3-5-1-10,4-10c6,0,11,5,11,10C7100,9316,7098,9320,7096,9320z"/>
	<path d="M532,8575c-6-6,30-55,41-55c5,0,25-11,44-26c20-15,33-20,33-12c0,7-26,32-57,55C561,8560,534,8577,532,8575z"/>
	<path d="M8532,8260c-2-8-11-29-19-47c-16-34-14-69,2-66c11,2,15,8,39,65c9,20,21,40,26,43c6,3,10,9,10,14
		C8590,8283,8537,8275,8532,8260z"/>
	<path d="M550,8075c0-16,27-32,37-22c3,4,3,13,0,22C579,8095,550,8095,550,8075z"/>
	<path d="M8614,8070c-8,0-12-4-9-10c3-5,10-10,16-10c5,0,9,5,9,10C8630,8066,8623,8070,8614,8070z"/>
	<path d="M629,8048c-6-2-11-8-11-13s5-11,11-13s11,4,11,13S635,8050,629,8048z"/>
	<path d="M432,7957c-2-10,7-29,20-42c44-47,53-25,11,26C441,7967,434,7970,432,7957z"/>
	<path d="M8805,7861c-3-5-1-12,5-16c5-3,10,1,10,9C8820,7872,8814,7875,8805,7861z"/>
	<path d="M460,7863c0-4,6-23,12-42c13-35,25-51,41-51c13,0-3,63-21,83C477,7870,460,7876,460,7863z"/>
	<path d="M8822,7817c-2-10,3-17,12-17s24-9,33-19c9-11,20-18,25-15c13,9,9,24-7,24c-8,0-15,8-15,18s-3,22-7,26
		C8851,7846,8825,7836,8822,7817z"/>
	<path d="M536,7822c-7-12,33-44,52-40c14,3,12,7-8,26C555,7832,544,7835,536,7822z"/>
	<path d="M9044,7787c-3-3-4-12-1-19c3-8,6-5,6,6C9050,7785,9047,7791,9044,7787z"/>
	<path d="M8930,7770c-6,0-10-4-10-10c0-5,4-10,10-10c5,0,10,5,10,10C8940,7766,8935,7770,8930,7770z"/>
	<path d="M9050,7710c-6,0-10-4-10-10c0-5,4-10,10-10c5,0,10,5,10,10C9060,7706,9055,7710,9050,7710z"/>
	<path d="M9120,7695c-6-3-10-13-10-21s-6-14-13-14s-18-10-26-21c-11-18-11-23,1-30c31-21,50-6,54,44C9128,7682,9126,7699,9120,7695z
		"/>
	<path d="M9031,7670c-18,0-20-17-6-36c14-18,14-18,15,9C9040,7658,9036,7670,9031,7670z"/>
	<path d="M9152,7608c-10-2-16-12-15-23s-3-23-9-26c-6-4-8-15-4-25c7-17,9-17,26,6c11,14,20,35,20,48C9170,7605,9165,7610,9152,7608z
		"/>
	<path d="M9289,7580c-12,0-12-27,0-35c12-7,24,12,16,25C9302,7576,9295,7580,9289,7580z"/>
	<path d="M9223,7544c-11-23-10-25,10-22c14,2,23,11,25,26C9263,7579,9238,7576,9223,7544z"/>
	<path d="M9341,7560c-6,0-11-4-11-10c0-5,2-10,4-10c3,0,8,5,11,10C9348,7556,9346,7560,9341,7560z"/>
	<path d="M9513,7500c-17,0-63-56-63-77v-24l35,27c23,17,35,35,35,50C9520,7489,9517,7500,9513,7500z"/>
	<path d="M9410,7290c-6,0-10-4-10-10c0-5,4-10,10-10c5,0,10,5,10,10C9420,7286,9415,7290,9410,7290z"/>
	<path d="M9380,7259c-6-3-11-8-11-12c1-12,15-9,19,4C9391,7257,9387,7261,9380,7259z"/>
	<path d="M9555,6931c-3-6,4-15,15-21c16-8,20-8,20,3c0,8-3,17-7,20C9574,6943,9562,6942,9555,6931z"/>
	<path d="M9620,6890c-6,0-10-4-10-10c0-5,4-10,10-10c5,0,10,5,10,10C9630,6886,9625,6890,9620,6890z"/>
	<path d="M9944,6810c-2,0-4-4-4-10c0-5,5-10,11-10c5,0,7,5,4,10C9952,6806,9947,6810,9944,6810z"/>
	<path d="M9710,6772c0-12,49-37,56-29c3,3,0,13-7,21C9744,6780,9710,6786,9710,6772z"/>
	<path d="M1579,6670c-10,0-12-14-3-23c10-9,25,3,19,14C1591,6666,1585,6670,1579,6670z"/>
	<path d="M1714,6627c-3-3-4-12-1-19c3-8,6-5,6,6C1720,6625,1717,6631,1714,6627z"/>
	<path d="M9955,6540c-9,0-15-5-13-11s8-10,13-10s11,4,13,10S9964,6540,9955,6540z"/>
	<path d="M10136,6330c-9,0-16-4-16-10c0-5,4-10,9-10c6,0,13,5,16,10C10148,6326,10144,6330,10136,6330z"/>
	<path d="M10214,6290c-8,0-14-4-14-10c0-5,9-10,21-10c11,0,17,5,14,10C10232,6286,10222,6290,10214,6290z"/>
	<path d="M429,6035c-12-8-12-35,0-35c14,0,23,18,16,30C441,6036,434,6038,429,6035z"/>
	<path d="M10394,5899c-10-8-12-15-4-23c13-13,35,7,25,24C10410,5908,10404,5908,10394,5899z"/>
	<path d="M10581,5865c-2-3,1-11,7-17c7-7,12-8,12-2s-3,14-7,17C10590,5867,10584,5868,10581,5865z"/>
	<path d="M10426,5745c7-16,30-20,38-6c3,4,3,11-1,15C10450,5767,10421,5760,10426,5745z"/>
	<path d="M10666,5619c-11,1-17-2-13-5c3-3,12-4,19-1C10680,5616,10677,5619,10666,5619z"/>
	<path d="M10720,5519c-12-5-15-19-3-20c4,0,9,5,11,12C10731,5517,10727,5521,10720,5519z"/>
	<path d="M10805,5440c-8,0-15-4-15-10c0-5,7-10,15-10s15,5,15,10C10820,5436,10813,5440,10805,5440z"/>
	<path d="M1056,5420c-9,0-16-7-16-16c0-17,22-14,28,4C1070,5415,1065,5420,1056,5420z"/>
	<path d="M1080,5341c0-11,4-22,9-25c12-8,34,21,26,34C1104,5367,1080,5361,1080,5341z"/>
	<path d="M11033,5207c-5-20,3-34,13-24c4,3,3,14-1,24C11037,5224,11037,5224,11033,5207z"/>
	<path d="M1177,5191c-13-13-3-26,12-16c6,3,8,11,5,17C1190,5198,1184,5198,1177,5191z"/>
	<path d="M11123,5170c-9,2,22-69,37-84l20-20v21c0,11-12,34-28,51C11137,5155,11124,5169,11123,5170z"/>
	<path d="M1261,5170c-5,0-13-4-16-10c-3-5-2-10,4-10c5,0,13,5,16,10C1268,5166,1267,5170,1261,5170z"/>
	<path d="M938,5138c-18-6-21-28-4-28c9,0,16,7,16,16S945,5140,938,5138z"/>
	<path d="M1030,5090c-6,0-10-4-10-10c0-5,4-10,10-10c5,0,10,5,10,10C1040,5086,1035,5090,1030,5090z"/>
	<path d="M1308,5062c-6-6-7-16-3-22c5-8,11-8,17-2s7,16,3,22C1320,5068,1314,5068,1308,5062z"/>
	<path d="M11188,5054c-9-6,22-53,34-54c15,0,8,33-9,46C11203,5053,11192,5056,11188,5054z"/>
	<path d="M1320,4995c0-8,7-15,15-15c16,0,20,12,8,23C1332,5015,1320,5011,1320,4995z"/>
	<path d="M1360,4960c0-11,7-20,15-20c15,0,21,21,8,33C1371,4986,1360,4980,1360,4960z"/>
	<path d="M11472,4885c-8-7,20-45,33-45c22,0,18,15-8,33C11485,4881,11474,4886,11472,4885z"/>
	<path d="M11323,4890c-16,0-6-27,12-34c19-7,31,14,14,25C11341,4886,11330,4890,11323,4890z"/>
	<path d="M1263,4843c-2-7-2-19,0-25c3-7,5-2,5,12S1266,4849,1263,4843z"/>
	<path d="M11530,4800c-6,0-10-4-10-10c0-5,4-10,10-10c5,0,10,5,10,10C11540,4796,11535,4800,11530,4800z"/>
	<path d="M1267,4797c-23-7-16-25,19-52c30-23,41-26,66-19c44,13,35,29-18,32c-36,3-47,7-51,23C1280,4792,1273,4799,1267,4797z"/>
	<path d="M1150,4385c-13-15-5-75,10-75c14,0,30,35,30,64S1170,4409,1150,4385z"/>
	<path d="M10091,4330c-6,0-13-4-16-10c-3-5,1-10,9-10c9,0,16,5,16,10C10100,4326,10096,4330,10091,4330z"/>
	<path d="M10135,4320c-9,0-15-5-13-11s8-10,13-10s11,4,13,10S10144,4320,10135,4320z"/>
	<path d="M10029,4320c-12,0-31-49-25-64c2-6,7-2,12,9c4,11,14,24,21,28c7,5,11,12,8,18C10041,4316,10034,4320,10029,4320z"/>
	<path d="M10209,4290c-5,0-9-7-9-15s7-15,15-15c9,0,12,6,9,15C10220,4283,10214,4290,10209,4290z"/>
	<path d="M10132,4215c28-43,42-45,33-5c-4,19-3,30,4,30c18,0,13,18-7,23C10110,4277,10100,4261,10132,4215z"/>
	<path d="M10062,4248c3-7,13-15,24-17c16-3,17-1,5,13C10075,4263,10057,4265,10062,4248z"/>
	<path d="M12032,4207c-2-19,1-27,12-27c17,0,31,34,21,50C12054,4248,12035,4235,12032,4207z"/>
	<path d="M10190,4229c-6-3-11-8-11-12c1-12,15-9,19,4C10201,4227,10197,4231,10190,4229z"/>
	<path d="M10029,4230c-6,0-7-4-4-10c3-5,11-10,16-10c6,0,7,5,4,10C10042,4226,10034,4230,10029,4230z"/>
	<path d="M10250,4204c0-8,5-12,10-9c6,4,8,11,5,16C10256,4225,10250,4222,10250,4204z"/>
	<path d="M10220,4200c-6,0-10-4-10-10c0-5,4-10,10-10c5,0,10,5,10,10C10230,4196,10225,4200,10220,4200z"/>
	<path d="M10121,4200c-4,0-15-6-25-13c-17-13-16-14,12-14c21,0,29,4,25,14C10130,4194,10125,4200,10121,4200z"/>
	<path d="M10020,4190c-6,0-10-9-10-19c0-11,4-23,10-26c6-4,10,5,10,19S10025,4190,10020,4190z"/>
	<path d="M12270,4150c-6,0-10-4-10-10c0-5,4-10,10-10c5,0,10,5,10,10C12280,4146,12275,4150,12270,4150z"/>
	<path d="M10099,4140c-46-25-53-38-35-65c9-14,21-25,26-25c6,0,10-9,10-20s4-20,10-20c17,0,11,22-15,56c-14,18-25,35-25,38
		c0,12,38,6,43-6c2-7,8-9,13-5s3,12-4,16s-10,15-6,25C10122,4151,10121,4151,10099,4140z"/>
	<path d="M1320,4120c6-11,7-32,4-46c-6-24-4-26,14-22c14,4,22,0,25-14c8-30,27-12,27,25c-1,37-17,63-45,70
		C1311,4141,1309,4140,1320,4120z"/>
	<path d="M1391,4125c-2-3,1-11,7-17c7-7,12-8,12-2s-3,14-7,17C1400,4127,1394,4128,1391,4125z"/>
	<path d="M1274,4100c-2,0-4-4-4-10c0-5,5-10,11-10c5,0,7,5,4,10C1282,4096,1277,4100,1274,4100z"/>
	<path d="M10180,4082c0-14,39-46,47-39c3,4-2,16-12,27C10196,4091,10180,4096,10180,4082z"/>
	<path d="M12200,4050c-6,0-10-4-10-10c0-5,4-10,10-10c5,0,10,5,10,10C12210,4046,12205,4050,12200,4050z"/>
	<path d="M10168,4030c-14,0-22-30-11-41c7-7,12-2,15,15C10175,4018,10173,4030,10168,4030z"/>
	<path d="M10490,3990c-6,0-10-2-10-4c0-3,4-8,10-11c5-3,10-1,10,4C10500,3985,10495,3990,10490,3990z"/>
	<path d="M1440,3987c-24-2-25-10-5-27c9-7,14-19,11-26s1-18,9-24c7-6,11-20,8-30c-4-16,0-20,19-20c29,0,98-78,98-112
		c0-13,12-34,25-47c14-13,25-33,25-45c0-30,18-46,52-46c15,0,28-4,28-10c0-15,36-12,50,5c9,11,6,21-17,51c-21,28-29,33-31,21
		c-2-9-7-17-12-17c-13,0-73,89-85,125c-6,17-20,34-32,39c-14,7-21,18-20,35c2,20-4,26-25,31c-27,5-92,76-83,91
		C1458,3985,1451,3988,1440,3987z M1735,3630c2,0,7-4,10-10c3-5-1-10-10-10s-13,5-10,10C1728,3626,1733,3630,1735,3630z"/>
	<path d="M1171,3985c-2-3,1-11,7-17c7-7,12-8,12-2s-3,14-7,17C1180,3987,1174,3988,1171,3985z"/>
	<path d="M10440,3970c-12-7-12-12-2-22s15-10,22,2c5,8,10,18,10,23C10470,3983,10458,3982,10440,3970z"/>
	<path d="M10340,3980c-6,0-10-4-10-10c0-5,4-10,10-10c5,0,10,5,10,10C10350,3976,10345,3980,10340,3980z"/>
	<path d="M1290,3980c-6,0-10-9-10-20s4-20,10-20c5,0,10,9,10,20S1295,3980,1290,3980z"/>
	<path d="M10156,3951c-9-14,4-41,20-41c8,0,14-8,15-17c1-24,32-76,47-81c21-7,3,49-24,79c-13,14-24,35-24,47
		C10190,3960,10167,3969,10156,3951z"/>
	<path d="M1200,3920c-6,0-10-4-10-10c0-5,4-10,10-10c5,0,10,5,10,10C1210,3916,1205,3920,1200,3920z"/>
	<path d="M10478,3910c-14,0-9-27,7-40c8-7,15-17,15-22c0-18,67-81,79-74c17,11,13,37-8,43c-10,2-33,25-52,49
		C10501,3890,10483,3910,10478,3910z"/>
	<path d="M10396,3879c-11,1-17-2-13-5c3-3,12-4,19-1C10410,3876,10407,3879,10396,3879z"/>
	<path d="M1254,3810c-2,0-4-4-4-10c0-5,5-10,11-10c5,0,7,5,4,10C1262,3806,1257,3810,1254,3810z"/>
	<path d="M10465,3792l-3-22c-5-29,14-48,30-32c9,9,7,17-8,33L10465,3792z"/>
	<path d="M12160,3749c0-5,7-9,15-9c15,0,20,12,9,23C12176,3771,12160,3762,12160,3749z"/>
	<path d="M10624,3700c-8,0-14-4-14-10c0-5,9-10,21-10c11,0,17,5,14,10C10642,3696,10632,3700,10624,3700z"/>
	<path d="M10647,3628c7-29,33-59,44-52c14,8,11,62-4,67C10656,3656,10642,3650,10647,3628z"/>
	<path d="M10480,3636c0-16,28-42,36-33c3,3,1,15-6,26C10498,3653,10480,3657,10480,3636z"/>
	<path d="M10571,3630c-6,0-11-4-11-10c0-5,2-10,4-10c3,0,8,5,11,10C10578,3626,10576,3630,10571,3630z"/>
	<path d="M10806,3618c-10-1-17-7-17-13c1-15,24-12,29,3C10821,3617,10816,3621,10806,3618z"/>
	<path d="M1804,3607c-1-1,0-13,3-27c5-27,34-53,70-64c21-7,23-4,22,26c-1,18-3,25-6,16c-7-27-21-22-56,17
		C1820,3594,1805,3609,1804,3607z"/>
	<path d="M10527,3581c-11-11-2-41,13-41c11,0,14,33,3,44C10539,3587,10532,3586,10527,3581z"/>
	<path d="M1750,3560c-6,0-10-4-10-10c0-5,4-10,10-10c5,0,10,5,10,10C1760,3556,1755,3560,1750,3560z"/>
	<path d="M1712,3551c-5-14,5-27,14-18c3,3,2,11-2,18C1718,3562,1716,3562,1712,3551z"/>
	<path d="M10862,3505c-5-23,51-71,56-49c2,8-9,27-25,41C10868,3521,10865,3522,10862,3505z"/>
	<path d="M1740,3515c-6-4-8-10-5-15s1-11-5-15c-7-4-3-16,9-33c10-15,20-36,22-46c6-27,29-32,36-7c3,12,9,21,14,21s9,5,9,11
		c0,7-12,10-30,7c-32-5-41,8-14,19c15,5,15,8,2,17c-8,6-17,19-21,29S1746,3518,1740,3515z"/>
	<path d="M10593,3486c-7-7,17-56,27-56c15,0,12,21-7,42C10604,3482,10595,3488,10593,3486z"/>
	<path d="M10750,3473c1-11,26-43,34-43s8,35-1,43C10774,3482,10750,3482,10750,3473z"/>
	<path d="M10812,3461c-5-14,5-27,14-18c3,3,2,11-2,18C10818,3472,10816,3472,10812,3461z"/>
	<path d="M11039,3458c-6-2-11-8-11-13s5-11,11-13s11,4,11,13S11045,3460,11039,3458z"/>
	<path d="M10671,3455c-2-3,1-11,7-17c7-7,12-8,12-2s-3,14-7,17C10680,3457,10674,3458,10671,3455z"/>
	<path d="M10985,3440c-19,0-19-9,0-34c22-28,19-36-13-36c-37,0-43-7-29-34c7-11,13-22,14-24s13,4,28,14l26,17l-5-44c-2-24-5-56-5-71
		c-1-22-6-28-23-28c-21,0-21,1-3,13c12,10,14,16,7,21c-7,4-12,16-12,27c0,20-21,49-36,49c-4,0-15,7-25,16c-37,33-53-10-19-53
		c11-14,20-31,20-39c0-7,5-14,11-16c7-2,9-13,5-26c-8-23-47-39-65-27c-16,9-13,25,4,25c29,0,15,41-28,80c-56,53-84,55-51,5
		c9-14,14-32,10-40c-3-9,3-19,14-25c26-14,26-30,0-23c-15,4-20,0-20-16c0-19-2-20-21-9c-17,10-23,10-26,1c-6-16-28-16-53-1
		c-10,7-22,9-26,5c-9-9,25-47,43-47c7,0,13-8,13-18c0-19,18-42,32-42c5,0,4,9-3,21c-14,27,6,54,21,29c11-17,30-20,47-7
		c18,13,37-1,23-18c-9-11-7-20,7-39c10-14,21-26,25-26c5,0,8-8,8-17c0-22,39-63,60-63c9,0,22-11,28-24c11-24,23-26,109-17
		c18,2,16,36-2,51c-17,14-20,50-4,50c6,0,16-13,22-30c12-31,37-41,37-15c0,15,16,19,53,15c26-2,48,19,43,44c-2,11-7,41-11,66
		c-5,29-16,51-32,63c-16,13-22,25-18,38c5,14,2,19-10,19c-16,0-16,2-3,23c15,22,14,47-2,47c-5,0-11-14-15-30c-4-17-11-28-16-24
		c-5,3-7,9-4,14c3,4-2,13-10,20s-15,18-15,25s-9,15-20,18c-26,7-26,27,0,34c16,4,19,11,14,27c-10,34-32,52-46,38c-18-18-25-15-32,18
		C11003,3428,10994,3440,10985,3440z M10954,3126c9,3,16,2,16-4c0-15-32-24-44-12c-7,7-7,10,1,10C10933,3120,10945,3123,10954,3126z
		"/>
	<path d="M10774,3414c-7-17,19-87,35-92c11-4,13,2,8,27c-6,30-5,31,20,25c19-5,24-3,21,7c-3,9-19,14-42,13c-27-1-36,3-37,15
		C10779,3418,10776,3420,10774,3414z"/>
	<path d="M2015,3376c7-37,12-41,32-28c9,6,7,16-8,41C2015,3429,2006,3425,2015,3376z"/>
	<path d="M11181,3378c-25-26-19-63,20-140c5-10,9-29,9-42c0-27,37-69,55-63c10,4,11,184,1,195c-3,2-11,0-19-6c-8-7-18-8-27-1
		c-13,8-13,10,0,19c8,6,22,9,31,6c15-3,15-1,0,25C11232,3405,11208,3408,11181,3378z"/>
	<path d="M10645,3390c-3-6,1-13,10-16c19-8,30,0,20,15C10667,3403,10653,3403,10645,3390z"/>
	<path d="M1824,3390c-20,0-17-7,6-13c11-3,18-1,14,4C1841,3386,1832,3390,1824,3390z"/>
	<path d="M10565,3350c-18,0-18-1-5-34c5-14,16-26,25-26c18,0,18,1,5,34C10585,3338,10574,3350,10565,3350z"/>
	<path d="M1814,3350c-12,0-12-4,2-25c19-29,29-27,19,4C1832,3341,1822,3350,1814,3350z"/>
	<path d="M10696,3313c3-12,14-23,25-26c25-7,24,1-3,30C10693,3343,10689,3343,10696,3313z"/>
	<path d="M1862,3303c-2-18,3-35,12-43c9-7,16-23,16-35s9-34,20-48s20-30,20-35c0-13,29-36,37-29c8,9-27,87-39,87c-5,0-9,12-8,28
		c4,53,0,72-15,72c-9,0-15,9-15,21C1890,3353,1865,3338,1862,3303z"/>
	<path d="M2146,3160c-3,0-8-4-11-10c-3-5-1-10,4-10c6,0,11,5,11,10C2150,3156,2148,3160,2146,3160z"/>
	<path d="M2102,3158c-24-5-26-41-3-62c21-19,52-13,32,7c-6,6-11,22-11,35C2120,3155,2115,3161,2102,3158z"/>
	<path d="M2010,3141c0-14,79-111,91-111c6,0,1,12-11,28c-12,15-28,42-35,60C2042,3147,2010,3164,2010,3141z"/>
	<path d="M10064,3107c-3-3-4-12-1-19c3-8,6-5,6,6C10070,3105,10067,3111,10064,3107z"/>
	<path d="M10120,3039c0-47,19-50,35-5c7,21,6,29-5,36C10125,3086,10120,3081,10120,3039z"/>
	<path d="M2001,3080c-6,0-13-4-16-10c-3-5,1-10,9-10c9,0,16,5,16,10C2010,3076,2006,3080,2001,3080z"/>
	<path d="M10070,3060c-6,0-10-7-10-15s4-15,10-15c5,0,10,7,10,15S10075,3060,10070,3060z"/>
	<path d="M10795,3044c-11-3-28-9-38-11c-9-3-17-8-17-12c1-15,40-51,54-51c9,0,20-8,23-17c4-10,11-21,17-25s11-11,11-16s14-21,31-35
		l32-27l6,31c7,35,1,49-19,49c-7,0-15,10-17,23c-2,12-9,21-17,19c-7-1-27,10-45,26c-29,26-31,30-17,41
		C10813,3049,10812,3050,10795,3044z"/>
	<path d="M1990,2989c0-5,7-9,15-9c15,0,20,12,9,23C2006,3011,1990,3002,1990,2989z"/>
	<path d="M2013,2959c-1,1,0-6,3-14c4-8,15-15,25-15c26,0,24,9-4,20C2025,2955,2014,2959,2013,2959z"/>
	<path d="M2460,2865c-6-3-10-10-10-16c0-5,4-9,10-9c5,0,10,7,10,16C2470,2864,2465,2868,2460,2865z"/>
	<path d="M9075,2830c-14,0-25-6-25-13c0-20,46-59,63-55c14,3,14,7,2,36C9104,2822,9095,2830,9075,2830z"/>
	<path d="M2467,2798c-8-28-6-29,17-13c10,8,15,18,11,24C2485,2826,2473,2822,2467,2798z"/>
	<path d="M10490,2810c-23,0-26-10-8-28s28-15,28,8C10510,2803,10503,2810,10490,2810z"/>
	<path d="M9142,2755c-3-2,1-11,8-20s15-13,18-10c3,2-1,11-8,20S9145,2758,9142,2755z"/>
	<path d="M2102,2693c-3-34,19-115,34-120c16-5,14,65-2,71c-8,3-14,18-14,34s-3,32-8,36C2108,2718,2104,2709,2102,2693z"/>
	<path d="M10630,2701c0-12,20-25,27-18c3,3,2,10-2,16C10647,2713,10630,2713,10630,2701z"/>
	<path d="M9188,2688c2-10,11-18,18-18c8,0,14-7,14-15c0-19,14-19,30,0c10,12,8,18-10,33C9211,2712,9181,2712,9188,2688z"/>
	<path d="M2638,2702c-9-9-9-15,0-24s12-7,12,12S2647,2711,2638,2702z"/>
	<path d="M2614,2670c-2,0-4-4-4-10c0-5,5-10,11-10c5,0,7,5,4,10C2622,2666,2617,2670,2614,2670z"/>
	<path d="M10639,2654c-14-8-11-34,4-34c21,0,28,12,16,26C10653,2654,10644,2657,10639,2654z"/>
	<path d="M10748,2620c-6,0-6-6,2-15c14-17,26-13,15,4C10762,2615,10754,2620,10748,2620z"/>
	<path d="M10795,2571c-6-10,33-36,41-28c3,2,2,12-2,21C10827,2582,10805,2586,10795,2571z"/>
	<path d="M10736,2563c-18-4-22-10-18-29c6-33,22-41,29-14c3,13,11,19,19,16c17-6,18,6,3,21C10764,2562,10749,2565,10736,2563z"/>
	<path d="M2014,2568c-11-2-20-11-22-22c-3-13,1-17,14-14c11,2,20,11,22,22C2031,2567,2027,2571,2014,2568z"/>
	<path d="M3154,2550c-21,0-11-64,10-68c17-4,22,22,10,52C3171,2543,3162,2550,3154,2550z"/>
	<path d="M10816,2530c-7,0-19-7-26-15c-11-13-8-15,14-15c16,0,26,5,26,15C10830,2523,10824,2530,10816,2530z"/>
	<path d="M2048,2482c-11-11-1-52,13-52c11,0,11,6,3,38C2060,2483,2054,2488,2048,2482z"/>
	<path d="M3136,2461c-7-10,22-37,30-28c4,3,4,13,1,22C3160,2472,3144,2475,3136,2461z"/>
	<path d="M10890,2450c-13,0-20-7-20-20c0-18,3-19,20-10c11,6,20,15,20,20C10910,2446,10901,2450,10890,2450z"/>
	<path d="M3240,2450c-6,0-10-4-10-10c0-5,4-10,10-10c5,0,10,5,10,10C3250,2446,3245,2450,3240,2450z"/>
	<path d="M2139,2418c-6-2-11-8-11-13s5-11,11-13s11,4,11,13S2145,2420,2139,2418z"/>
	<path d="M2780,2378c0-16,3-19,11-11c6,6,8,16,5,22C2785,2406,2780,2402,2780,2378z"/>
	<path d="M2079,2385c-13-9-11-31,5-44c20-16,30,3,16,29C2094,2381,2085,2388,2079,2385z"/>
	<path d="M2850,2352c0-5,3-12,7-16c5-4,8-38,8-74c1-73,19-122,38-103c8,8,7,20-7,45c-12,23-17,51-16,87c1,30,2,57,1,62
		C2880,2363,2850,2362,2850,2352z"/>
	<path d="M11050,2350c-6,0-10-4-10-10c0-5,4-10,10-10c5,0,10,5,10,10C11060,2346,11055,2350,11050,2350z"/>
	<path d="M11070,2315c0-8,4-15,9-15c13,0,22,16,14,24C11082,2335,11070,2330,11070,2315z"/>
	<path d="M4893,2303c-3-7,3-9,16-6c12,3,21,10,21,15C4930,2325,4898,2318,4893,2303z"/>
	<path d="M2910,2256c5-15,10-38,10-52s6-24,14-24s17-7,20-16c3-8,10-13,15-10c8,5-22,75-53,124C2903,2300,2899,2285,2910,2256z"/>
	<path d="M3289,2280c-5,0-9-4-9-10c0-5,7-10,16-10c8,0,12,5,9,10C3302,2276,3295,2280,3289,2280z"/>
	<path d="M11259,2258c-6-2-11-8-11-13s5-11,11-13s11,4,11,13S11265,2260,11259,2258z"/>
	<path d="M11235,2230c-16,0-19-17-9-44c8-20,18-20,38,0s21,35,1,28c-8-4-15-1-15,5S11243,2230,11235,2230z"/>
	<path d="M11334,2199c-14-11-14-55,0-77c10-16,29-4,22,13c-2,7,2,16,10,19c13,5,12,9-2,31C11351,2205,11344,2208,11334,2199z"/>
	<path d="M11190,2180c0-11,4-20,9-20c14,0,23,18,16,30C11205,2207,11190,2201,11190,2180z"/>
	<path d="M3379,2189c-32,0-33-1-11-11c17-8,26-8,34,0C3411,2187,3406,2190,3379,2189z"/>
	<path d="M11287,2178c-30-4-39-58-9-58c20,0,32,18,32,47C11310,2176,11302,2180,11287,2178z"/>
	<path d="M4950,2175c-6-3-10-10-10-16c0-5,4-9,10-9c5,0,10,7,10,16C4960,2174,4955,2178,4950,2175z"/>
	<path d="M5041,2158c-2-6,1-14,7-16c7-2,12-11,12-20c0-11,3-13,11-5s6,17-8,32C5051,2163,5044,2166,5041,2158z"/>
	<path d="M11405,2160c-9,0-15-9-15-25c0-13-6-28-14-32c-11-6-12-15-2-42c6-19,17-36,23-39c19-6,29,28,12,39c-12,8-12,11,2,22
		c12,9,19,58,10,75C11421,2159,11413,2160,11405,2160z"/>
	<path d="M3304,2133c14-51,16-82,7-88c-15-9-14-46,1-42c8,1,12-7,10-24c-1-16,6-33,18-44c20-18,20-18,20,43c0,38-4,62-11,62
		c-6,0-9,18-8,46c2,31-1,48-11,54C3307,2155,3298,2152,3304,2133z"/>
	<path d="M3384,2128c-9-9-13-21-10-27c13-20,26-11,26,16C3400,2142,3399,2143,3384,2128z"/>
	<path d="M11492,2067c-2-11,3-17,16-17c11,0,23-7,26-16c3-8,10-12,16-9c6,4,2,18-12,35C11513,2091,11497,2093,11492,2067z"/>
	<path d="M11450,2020c-6,0-10-7-10-15s4-15,10-15c5,0,10,7,10,15S11455,2020,11450,2020z"/>
	<path d="M2954,1998c3-13,9-40,12-60c4-21,13-43,20-49c21-17,18,41-3,91C2964,2023,2944,2035,2954,1998z"/>
	<path d="M11580,2001c0-5,6-12,12-15c10-5,10-7,0-12c-15-7-16-50-1-60c6-3,18-22,26-42c11-26,17-32,26-23c16,16,37,14,37-4
		c0-8,4-15,10-15c5,0,10,5,10,10c0,6,4,10,10,10c5,0,7-13,3-30c-5-27-3-30,21-30c18,0,25-4,20-12s0-9,14-6c13,4,22,1,22-6
		c0-21,205-170,221-160c5,3,9,0,9-5c0-6,7-11,15-11c9,0,18-7,21-15c4-8,14-15,24-15s20-8,23-19c3-12,17-20,46-25c23-3,46-4,52-1
		c14,9,11,25-4,19c-7-2-25,11-41,30c-16,21-33,33-42,29c-8-3-14,0-14,6s-11,11-24,11c-27,0-53,24-36,35c16,10,0,26-23,23
		c-18-2-23,3-25,30c-3,33-22,46-22,15c-1-16-2-16-15,1c-8,11-15,27-15,37s-11,19-28,22c-15,3-36,19-47,36c-21,33-55,42-55,15
		c0-11,6-15,20-11c13,3,20,0,20-9c0-8-5-14-11-14s-8-9-4-22l6-23l-18,20c-10,12-26,24-36,28s-23,21-29,37c-7,22-18,33-38,37
		c-17,3-30,13-33,25c-4,15-11,18-26,13c-12-3-31,1-46,11c-20,13-23,19-14,30c10,12,15,12,35-1c31-20,44-19,44,3c0,9-15,27-33,39
		C11614,2010,11580,2017,11580,2001z"/>
	<path d="M3380,2010c-6,0-10-9-10-19c0-11,4-23,10-26c6-4,10,5,10,19S3385,2010,3380,2010z"/>
	<path d="M11483,1993c-2-7-2-21,0-30c3-10,5-4,5,12C11488,1992,11486,1999,11483,1993z"/>
	<path d="M3468,1978c-15-5-23-28-10-28c5,0,13,7,16,16C3478,1976,3475,1980,3468,1978z"/>
	<path d="M3419,1968c-6-2-11-8-11-13s5-11,11-13s11,4,11,13S3425,1970,3419,1968z"/>
	<path d="M2315,1941c-3-5-1-12,5-16c5-3,10,1,10,9C2330,1952,2324,1955,2315,1941z"/>
	<path d="M11712,1917c-2-10,3-17,12-17c10,0,16,9,16,21C11740,1945,11717,1942,11712,1917z"/>
	<path d="M3368,1897c3-28,50-107,64-107c4,0,8,7,8,15s6,12,13,9c9-3,12,4,11,23c-2,39-2,39-17,18c-8-10-19-15-25-11
		c-16,9-15,23,0,29c7,2,5,3-5,2c-12-2-17,4-17,19c0,13-3,26-7,30C3379,1937,3365,1922,3368,1897z"/>
	<path d="M3315,1920c-21,0-22-122,0-140c8-6,18-9,23-6c8,5,6,105-3,134C3332,1914,3324,1920,3315,1920z"/>
	<path d="M11760,1901c0-5-3-16-6-25c-4-12,0-16,15-16c20,0,30,28,14,43C11774,1913,11760,1912,11760,1901z"/>
	<path d="M10428,1892c-15-15-2-43,22-49c11-3,20-10,20-17c0-6,16-22,36-34c27-18,39-21,47-13c9,9,4,18-18,36c-17,13-37,24-45,25
		c-8,0-23,14-33,32C10444,1894,10436,1900,10428,1892z"/>
	<path d="M2450,1840c-6,0-10-4-10-10c0-5,4-10,10-10c5,0,10,5,10,10C2460,1836,2455,1840,2450,1840z"/>
	<path d="M3478,1798c-18-6-21-28-4-28c9,0,16,7,16,16S3485,1800,3478,1798z"/>
	<path d="M3597,1780l-22-1l22-18c29-25,29-31-2-31c-21,0-25-5-25-29c0-17-5-33-10-36c-6-4-10-12-9-18c1-7-1-20-5-29
		c-9-21,10-58,30-58c9,0,14,8,13,18c-1,9-1,34,0,55c1,34,3,38,21,32c14-5,20-2,20,9c0,9-5,16-10,16c-18,0-10,21,11,28
		c20,8,20,10,5,24c-9,9-16,21-16,27S3610,1780,3597,1780z"/>
	<path d="M3002,1756c-2-10-13-27-23-37c-11-11-17-24-14-29c11-17,24-11,31,15c3,13,12,29,20,36c8,6,14,18,14,26
		C3030,1787,3006,1778,3002,1756z"/>
	<path d="M2070,1773c0-10,32-43,42-43s11,34,1,43C2105,1782,2070,1782,2070,1773z"/>
	<path d="M10597,1743c-11-10,33-52,48-47c23,9,55-15,52-39c-1-13,4-23,13-23c8-1,18-3,22-4c5-1,17-4,28-5s24-3,30-4c5,0,18-10,29-22
		s24-18,30-14c18,10,13,25-9,25c-11,0-20,7-20,15s-6,15-13,15c-8,0-37,22-65,49s-53,44-55,38c-2-8-12-6-28,5
		C10634,1750,10608,1754,10597,1743z"/>
	<path d="M5413,1740c-13,0-13-3-3-15c13-15,35-11,25,6C5431,1736,5422,1740,5413,1740z"/>
	<path d="M3475,1740c-8,0-15-4-15-10c0-5,7-10,15-10s15-5,15-11c0-16,38-61,43-52c3,4,2,23,0,41c-4,26-9,31-24,27c-11-4-19-2-19,4
		S3483,1740,3475,1740z"/>
	<path d="M3375,1720c-19-16-19-30,0-44c8-6,17-27,20-46c3-24,2-27-3-12l-7,24l-25-26l-24-26l22-23c20-19,24-20,33-7c8,12,9,11,4-6
		c-7-27,21-94,40-94c17,0,12,41-11,99c-17,40-17,41-5,41c5,0,14-14,20-30c10-29,36-49,48-36c3,3-1,14-10,24c-13,14-14,21-5,30
		c8,8,8,15-1,26c-7,8-11,28-9,43c3,29-3,32-50,17c-20-6-22-3-22,26C3390,1728,3388,1731,3375,1720z"/>
	<path d="M2137,1698c-12,3-8-7,10-25c12-12,30-17,50-15c28,3,33-1,39-22c8-32,11-32,34-4c21,27,16,41-12,32c-12-3-24,0-31,10
		c-7,8-28,17-47,19S2142,1698,2137,1698z"/>
	<path d="M3280,1620c-13,0-13-37-1-45c13-7,24,13,17,30C3293,1613,3286,1620,3280,1620z"/>
	<path d="M3102,1563c-3-40-22-63-22-27c0,8-5,12-10,9c-15-9-12-41,5-55c11-9,12-17,4-32c-9-16-7-24,5-37c15-15,16-14,14,8
		c-4,30,21,41,29,12c8-33,23-25,17,9c-4,16-2,36,4,43c13,15,10,46-5,55c-5,4-16,18-24,32C3105,1605,3105,1605,3102,1563z"/>
	<path d="M10889,1562c5-9,12-25,15-36c5-15,9-16,21-6c9,7,16,11,18,9c1-2,7-13,13-24c7-11,19-19,28-17s16-4,16-13c0-10,10-15,31-15
		c23,0,30-4,26-14c-8-21,20-43,35-28c16,16,28,15,28-2s5-21,42-30c21-5,28-3,28,9c0,8-5,15-10,15c-6,0-10,9-10,20s-5,20-10,20
		c-6,0-10-7-10-15c0-23-59,23-66,50c-4,17-11,20-32,17c-19-2-34,4-50,21c-13,14-31,23-40,20c-10-2-28,7-41,21
		C10895,1591,10875,1590,10889,1562z"/>
	<path d="M3670,1535c0-8,4-15,9-15c13,0,22,16,14,24C3682,1555,3670,1550,3670,1535z"/>
	<path d="M3620,1550c-6,0-10-9-10-20s4-20,10-20c5,0,10,9,10,20S3625,1550,3620,1550z"/>
	<path d="M3310,1550c-6,0-10-4-10-10c0-5,4-10,10-10c5,0,10,5,10,10C3320,1546,3315,1550,3310,1550z"/>
	<path d="M11120,1533c1-24,14-53,24-53c7,0,23-11,36-25c29-31,40-32,40-2s-32,60-54,51c-12-5-19,0-23,15
		C11138,1538,11120,1549,11120,1533z"/>
	<path d="M3220,1521c0-13,29-35,37-28c3,4,0,13-7,22C3236,1532,3220,1535,3220,1521z"/>
	<path d="M3506,1504c-10-25-7-34,9-34c9,0,15,9,15,25C3530,1523,3515,1529,3506,1504z"/>
	<path d="M3556,1510c-9,0-16-4-16-10c0-5,4-10,9-10c6,0,13,5,16,10C3568,1506,3564,1510,3556,1510z"/>
	<path d="M3632,1486c-14-14-14-17,3-36c10-11,22-20,27-20c11,0,10,27-3,52C3649,1501,3647,1501,3632,1486z"/>
	<path d="M4129,1480c-5,0-9-4-9-10c0-5,7-10,16-10c8,0,12,5,9,10C4142,1476,4135,1480,4129,1480z"/>
	<path d="M3556,1467c-30-14-32-24-10-55c8-12,12-26,9-32c-3-5-1-19,5-30c8-15,8-20-1-20c-6,0-13,9-16,20s-8,20-12,20
		c-3,0-12,10-20,21c-11,18-11,23,0,30c8,4,10,11,6,16c-5,4-13,1-18-7c-8-11-12-12-16-2c-5,13-33,17-33,4c0-4,11-23,25-42
		s25-40,25-47s7-13,15-13c9,0,20-11,24-24c5-13,34-50,64-82c30-33,56-68,58-78c2-11,24-30,48-43c53-28,51-27,51-5c0,11,9,27,20,37
		c23,21,16,39-11,32c-12-3-19,0-19,10c0,11,7,14,25,9c29-7,33,8,9,35c-19,21-11,39,17,39c11,0,22,7,25,15c4,8,17,15,30,15
		s24,5,24,11c0,5,4,7,10,4c20-12,10,22-13,42c-21,19-50,27-161,40c-27,3-57,14-67,24c-12,12-29,17-47,15c-26-4-28-2-24,25
		S3581,1479,3556,1467z M3595,1350c15-17,16-20,3-20c-9,0-19,7-22,16C3566,1371,3575,1373,3595,1350z M3796,1330c8,0,14-4,14-10
		c0-5-9-10-21-10c-11,0-17,5-14,10C3778,1326,3788,1330,3796,1330z M3714,1327c3,4,6-2,5-13c0-11-3-14-6-6
		C3710,1315,3711,1324,3714,1327z M3599,1300c6,0,13-4,16-10c3-5-1-10-9-10c-9,0-16,5-16,10C3590,1296,3594,1300,3599,1300z
		 M3678,1234c21-15,31-44,14-44c-10,0-52,43-52,53C3640,1254,3654,1251,3678,1234z"/>
	<path d="M11962,1440c-15,0-15-1,1-17c17-17,34-13,22,6C11982,1435,11971,1440,11962,1440z"/>
	<path d="M11270,1431c0-5-9-7-20-4c-33,9-22-14,15-31c19-9,35-21,35-26c0-6,5-10,11-10c14,0,1,62-15,72
		C11281,1442,11270,1442,11270,1431z"/>
	<path d="M11350,1430c-6,0-10-4-10-10c0-5,4-10,10-10c5,0,10,5,10,10C11360,1426,11355,1430,11350,1430z"/>
	<path d="M12030,1420c-11,0-21-30-14-41c10-16,19-9,20,16C12037,1409,12034,1420,12030,1420z"/>
	<path d="M3992,1385c13-19,28-37,35-39c23-9,22,10-3,42C3988,1433,3963,1431,3992,1385z"/>
	<path d="M3800,1420c-6,0-10-9-10-20s4-20,10-20c5,0,10,9,10,20S3805,1420,3800,1420z"/>
	<path d="M3266,1378c7-35,32-83,40-75c3,2-1,17-7,33c-7,16-13,31-14,34s-5,13-9,23C3264,1420,3260,1413,3266,1378z"/>
	<path d="M12070,1400c-6,0-10-4-10-10c0-5,4-10,10-10c5,0,10,5,10,10C12080,1396,12075,1400,12070,1400z"/>
	<path d="M3415,1390c-8,0-15-4-15-10c0-5,7-10,15-10s15,5,15,10C3430,1386,3423,1390,3415,1390z"/>
	<path d="M3102,1368c2-13,11-24,20-26c21-4,23,13,5,33C3109,1396,3098,1393,3102,1368z"/>
	<path d="M11236,1360c-3,0-8-4-11-10c-3-5-1-10,4-10c6,0,11,5,11,10C11240,1356,11238,1360,11236,1360z"/>
	<path d="M3330,1360c-5,0-12-4-15-10c-3-5,3-10,15-10s18,5,15,10C3342,1356,3335,1360,3330,1360z"/>
	<path d="M3442,1340c-6-17,7-42,18-35c6,4,5,13-3,26C3451,1341,3444,1346,3442,1340z"/>
	<path d="M3393,1337c-3-10,6-37,20-60c13-23,27-55,30-72c6-27,5-28-5-7c-14,27-28,29-28,2c0-11,9-25,20-32s20-20,20-30
		c0-9,4-20,10-23c5-3,10-14,10-23c0-12-3-13-12-4c-17,17-28,15-28-7c0-17,52-51,78-51c10,0,24-68,23-112c-1-34,14-37,24-5
		c6,19,8,19,12,5c6-23,15-23,31,2c7,11,18,20,25,20c6,0,23,12,36,25c23,25,51,33,51,15c0-5,7-10,15-10s15,9,15,20s-7,20-15,20
		s-15,7-15,15s-3,15-8,15c-11,0-92,76-92,87c0,5-9,18-20,28s-20,25-20,34c0,10-3,12-10,5s-6-20,5-40c8-16,15-42,15-59v-29l-16,22
		c-8,12-12,27-8,34c5,8,2,9-9,5s-17-1-17,8c0,8-8,15-17,15c-14,0-14,3-5,12c10,10,6,18-20,40c-28,23-31,29-18,38c13,8,13,10-2,10
		c-16,0-29,18-59,80C3399,1351,3396,1352,3393,1337z M3564,1002c15,21,26,13,26-18c0-17-4-21-20-17c-11,3-20,8-20,12
		C3550,982,3557,993,3564,1002z"/>
	<path d="M11295,1340c-22,0-18-28,6-41c16-8,24-8,33,2c8,9,7,11-7,6c-12-5-17-1-17,13C11310,1331,11303,1340,11295,1340z"/>
	<path d="M3184,1340c-2,0-4-4-4-10c0-5,5-10,11-10c5,0,7,5,4,10C3192,1336,3187,1340,3184,1340z"/>
	<path d="M6280,1320c-6,0-10-4-10-10c0-5,4-10,10-10c5,0,10,5,10,10C6290,1316,6285,1320,6280,1320z"/>
	<path d="M3340,1310c-16,0-12-34,10-85c11-26,20-55,20-65c0-25,19-35,26-15c6,16,1,33-32,98c-8,16-14,37-14,48
		C3350,1301,3345,1310,3340,1310z"/>
	<path d="M3204,1300c-19,0-18-9,3-33c17-19,17-19-5-13c-13,4-22,3-22-3c0-10,38-26,46-19c2,3,1,19-2,36
		C3220,1286,3211,1300,3204,1300z"/>
	<path d="M3110,1300c-6,0-10-4-10-10c0-5,4-10,10-10c5,0,10,5,10,10C3120,1296,3115,1300,3110,1300z"/>
	<path d="M11764,1290c-2,0-4-4-4-10c0-5,5-10,11-10c5,0,7,5,4,10C11772,1286,11767,1290,11764,1290z"/>
	<path d="M11580,1280c-6,0-10-7-10-16c0-8,4-12,10-9c5,3,10,10,10,16C11590,1276,11585,1280,11580,1280z"/>
	<path d="M6240,1280c-6,0-10-4-10-10c0-5,4-10,10-10c5,0,10,5,10,10C6250,1276,6245,1280,6240,1280z"/>
	<path d="M6210,1229c0-18,2-19,15-9c8,7,12,16,9,21C6224,1257,6210,1250,6210,1229z"/>
	<path d="M11540,1221c0-12,17-29,47-47c27-15,69-44,94-66c26-21,52-38,59-38s19-8,26-17c10-15,15-16,26-5c10,10,9,14-10,18
		c-12,4-22,11-22,18c0,6-14,17-30,24c-20,9-30,21-30,35c0,15-3,18-11,10s-19-4-40,18c-15,16-35,29-44,29c-8,0-24,9-35,20
		C11545,1245,11540,1245,11540,1221z"/>
	<path d="M11450,1230c-6,0-10-4-10-10c0-5,4-10,10-10c5,0,10,5,10,10C11460,1226,11455,1230,11450,1230z"/>
	<path d="M6241,1189c-3-24-3-24,18-5c11,10,18,23,15,28C6264,1228,6245,1214,6241,1189z"/>
	<path d="M4461,1220c-5,0-11-7-15-15c-3-9,0-15,9-15c8,0,15,7,15,15S4466,1220,4461,1220z"/>
	<path d="M12088,1200c-6,0-6-6,2-15c14-17,26-13,15,4C12102,1195,12094,1200,12088,1200z"/>
	<path d="M12055,1175c16-14,34-25,39-25c14,0-16,31-39,40C12023,1204,12023,1201,12055,1175z"/>
	<path d="M6391,1180c-6,0-11-4-11-10c0-5,2-10,4-10c3,0,8,5,11,10C6398,1176,6396,1180,6391,1180z"/>
	<path d="M3623,1163c-2-7-2-21,0-30c3-10,5-4,5,12C3628,1162,3626,1169,3623,1163z"/>
	<path d="M3334,1150c-13,0-14-3-5-14c9-10,9-16,1-21s-8-11,0-20c7-8,10-36,9-62c-2-37,1-47,12-45c23,6,40,24,35,38c-3,8,0,13,7,11
		c6-1,13,8,15,21c3,20,0,22-21,17c-22-6-25-3-31,34C3352,1137,3345,1150,3334,1150z"/>
	<path d="M11960,1130c-6,0-10-2-10-5c0-10,49-55,59-55c5,0,11-5,13-12c4-12,28-3,28,10c0,4-18,16-40,26c-22,11-40,23-40,28
		C11970,1126,11965,1130,11960,1130z"/>
	<path d="M11900,1079c0-5,10-9,21-9c18,0,19,2,9,15C11918,1100,11900,1097,11900,1079z"/>
	<path d="M6499,1058c-6-2-11-8-11-13s5-11,11-13s11,4,11,13S6505,1060,6499,1058z"/>
	<path d="M6360,1045c-10-12-9-16,5-21c19-8,40,9,31,25C6386,1064,6375,1063,6360,1045z"/>
	<path d="M11810,1035c0-8,4-15,9-15c13,0,22,16,14,24C11822,1055,11810,1050,11810,1035z"/>
	<path d="M11862,1016c-17,0-19-4-11-18c5-10,14-18,19-18c12,0,22,18,16,28C11884,1012,11872,1016,11862,1016z"/>
	<path d="M6397,999c-4,0-7-3-7-8c0-10,24-21,46-21c23,0,16,18-9,23C6415,995,6402,998,6397,999z"/>
	<path d="M11910,990c-6,0-10-4-10-10c0-5,4-10,10-10c5,0,10,5,10,10C11920,986,11915,990,11910,990z"/>
	<path d="M11932,960c-5-14,15-36,24-27c4,4,1,14-7,23C11940,967,11934,968,11932,960z"/>
	<path d="M3680,955c-6-3-10-10-10-16c0-5,4-9,10-9c5,0,10,7,10,16C3690,954,3685,958,3680,955z"/>
	<path d="M3534,824c-6-31-5-32,34-32c30-1,48,6,72,28l31,28l-23,25C3609,914,3547,888,3534,824z"/>
	<path d="M3516,770c-9,0-16-4-16-10c0-5,4-10,9-10c6,0,13,5,16,10C3528,766,3524,770,3516,770z"/>
	<path d="M7179,307c-8-14-8-22,0-30s11-3,11,19C7189,321,7188,323,7179,307z"/>
</g>
</svg>
